Mozilla Headline-Expanded ExtraLight.ufo
<glyph name="dollar" format="1">
  <advance width="732"/>
  <unicode hex="0024"/>
  <outline>
    <contour>
      <point x="370" y="-5" type="curve" smooth="yes"/>
      <point x="557" y="-5"/>
      <point x="666" y="69"/>
      <point x="666" y="193" type="curve" smooth="yes"/>
      <point x="666" y="290"/>
      <point x="601" y="345"/>
      <point x="465" y="364" type="curve" smooth="yes"/>
      <point x="293" y="388" type="line" smooth="yes"/>
      <point x="182" y="403"/>
      <point x="137" y="438"/>
      <point x="137" y="503" type="curve" smooth="yes"/>
      <point x="137" y="503" type="line" smooth="yes"/>
      <point x="137" y="589"/>
      <point x="222" y="638"/>
      <point x="362" y="638" type="curve" smooth="yes"/>
      <point x="521" y="638"/>
      <point x="597" y="566"/>
      <point x="597" y="459" type="curve" smooth="yes"/>
      <point x="597" y="459" type="line"/>
      <point x="664" y="459" type="line"/>
      <point x="639" y="623"/>
      <point x="543" y="695"/>
      <point x="362" y="695" type="curve" smooth="yes"/>
      <point x="178" y="695"/>
      <point x="70" y="621"/>
      <point x="70" y="496" type="curve" smooth="yes"/>
      <point x="70" y="400"/>
      <point x="134" y="345"/>
      <point x="269" y="326" type="curve" smooth="yes"/>
      <point x="441" y="302" type="line" smooth="yes"/>
      <point x="554" y="286"/>
      <point x="599" y="253"/>
      <point x="599" y="187" type="curve" smooth="yes"/>
      <point x="599" y="187" type="line" smooth="yes"/>
      <point x="599" y="101"/>
      <point x="513" y="52"/>
      <point x="370" y="52" type="curve" smooth="yes"/>
      <point x="211" y="52"/>
      <point x="132" y="121"/>
      <point x="132" y="231" type="curve" smooth="yes"/>
      <point x="132" y="231" type="line"/>
      <point x="64" y="231" type="line"/>
      <point x="89" y="67"/>
      <point x="187" y="-5"/>
    </contour>
    <contour>
      <point x="340" y="-92" type="line"/>
      <point x="396" y="-92" type="line"/>
      <point x="396" y="24" type="line"/>
      <point x="340" y="24" type="line"/>
    </contour>
    <contour>
      <point x="336" y="659" type="line"/>
      <point x="392" y="659" type="line"/>
      <point x="392" y="782" type="line"/>
      <point x="336" y="782" type="line"/>
    </contour>
  </outline>
</glyph>
<glyph name="percent" format="1">
  <advance width="892"/>
  <unicode hex="0025"/>
  <outline>
    <contour>
      <point x="105" y="0" type="line"/>
      <point x="175" y="0" type="line"/>
      <point x="441" y="322" type="line"/>
      <point x="371" y="322" type="line"/>
    </contour>
    <contour>
      <point x="451" y="368" type="line"/>
      <point x="521" y="368" type="line"/>
      <point x="787" y="690" type="line"/>
      <point x="717" y="690" type="line"/>
    </contour>
    <contour>
      <point x="256" y="360" type="curve" smooth="yes"/>
      <point x="389" y="360"/>
      <point x="457" y="439"/>
      <point x="457" y="530" type="curve" smooth="yes"/>
      <point x="457" y="621"/>
      <point x="389" y="700"/>
      <point x="256" y="700" type="curve" smooth="yes"/>
      <point x="123" y="700"/>
      <point x="55" y="621"/>
      <point x="55" y="530" type="curve" smooth="yes"/>
      <point x="55" y="439"/>
      <point x="123" y="360"/>
    </contour>
    <contour>
      <point x="256" y="410" type="curve" smooth="yes"/>
      <point x="162" y="410"/>
      <point x="115" y="450"/>
      <point x="115" y="523" type="curve" smooth="yes"/>
      <point x="115" y="537" type="line" smooth="yes"/>
      <point x="115" y="610"/>
      <point x="162" y="650"/>
      <point x="256" y="650" type="curve" smooth="yes"/>
      <point x="350" y="650"/>
      <point x="397" y="610"/>
      <point x="397" y="537" type="curve" smooth="yes"/>
      <point x="397" y="523" type="line" smooth="yes"/>
      <point x="397" y="450"/>
      <point x="350" y="410"/>
    </contour>
    <contour>
      <point x="636" y="-10" type="curve" smooth="yes"/>
      <point x="769" y="-10"/>
      <point x="837" y="69"/>
      <point x="837" y="160" type="curve" smooth="yes"/>
      <point x="837" y="251"/>
      <point x="769" y="330"/>
      <point x="636" y="330" type="curve" smooth="yes"/>
      <point x="503" y="330"/>
      <point x="435" y="251"/>
      <point x="435" y="160" type="curve" smooth="yes"/>
      <point x="435" y="69"/>
      <point x="503" y="-10"/>
    </contour>
    <contour>
      <point x="636" y="40" type="curve" smooth="yes"/>
      <point x="542" y="40"/>
      <point x="495" y="80"/>
      <point x="495" y="153" type="curve" smooth="yes"/>
      <point x="495" y="167" type="line" smooth="yes"/>
      <point x="495" y="240"/>
      <point x="542" y="280"/>
      <point x="636" y="280" type="curve" smooth="yes"/>
      <point x="730" y="280"/>
      <point x="777" y="240"/>
      <point x="777" y="167" type="curve" smooth="yes"/>
      <point x="777" y="153" type="line" smooth="yes"/>
      <point x="777" y="80"/>
      <point x="730" y="40"/>
    </contour>
  </outline>
</glyph>
<glyph name="ampersand" format="1">
  <advance width="800"/>
  <unicode hex="0026"/>
  <outline>
    <contour>
      <point x="247" y="390" type="curve" smooth="yes"/>
      <point x="626" y="0" type="line"/>
      <point x="763" y="0" type="line"/>
      <point x="763" y="54" type="line"/>
      <point x="663" y="54" type="line"/>
      <point x="299" y="431" type="line" smooth="yes"/>
      <point x="241" y="491"/>
      <point x="223" y="521"/>
      <point x="223" y="557" type="curve" smooth="yes"/>
      <point x="223" y="608"/>
      <point x="255" y="636"/>
      <point x="316" y="636" type="curve" smooth="yes"/>
      <point x="543" y="636" type="line"/>
      <point x="543" y="494" type="line"/>
      <point x="601" y="494" type="line"/>
      <point x="601" y="690" type="line"/>
      <point x="312" y="690" type="line" smooth="yes"/>
      <point x="212" y="690"/>
      <point x="159" y="644"/>
      <point x="159" y="557" type="curve" smooth="yes"/>
      <point x="159" y="501"/>
      <point x="183" y="455"/>
    </contour>
    <contour>
      <point x="311" y="-10" type="curve" smooth="yes"/>
      <point x="412" y="-10"/>
      <point x="487" y="21"/>
      <point x="525" y="80" type="curve"/>
      <point x="580" y="80" type="line"/>
      <point x="548" y="128" type="line"/>
      <point x="483" y="75"/>
      <point x="400" y="46"/>
      <point x="310" y="46" type="curve" smooth="yes"/>
      <point x="196" y="46"/>
      <point x="135" y="93"/>
      <point x="135" y="181" type="curve" smooth="yes"/>
      <point x="135" y="183" type="line" smooth="yes"/>
      <point x="135" y="278"/>
      <point x="189" y="325"/>
      <point x="307" y="334" type="curve"/>
      <point x="289" y="380" type="line"/>
      <point x="144" y="370"/>
      <point x="67" y="300"/>
      <point x="67" y="181" type="curve" smooth="yes"/>
      <point x="67" y="60"/>
      <point x="157" y="-10"/>
    </contour>
    <contour>
      <point x="595" y="121" type="line"/>
      <point x="652" y="152"/>
      <point x="649" y="237"/>
      <point x="649" y="302" type="curve" smooth="yes"/>
      <point x="649" y="374" type="line"/>
      <point x="591" y="374" type="line"/>
      <point x="591" y="156" type="line"/>
      <point x="551" y="156" type="line"/>
    </contour>
  </outline>
</glyph>
<glyph name="parenleft" format="1">
  <advance width="352"/>
  <unicode hex="0028"/>
  <outline>
    <contour>
      <point x="258" y="-92" type="curve"/>
      <point x="328" y="-92" type="line"/>
      <point x="182" y="47"/>
      <point x="134" y="150"/>
      <point x="134" y="325" type="curve" smooth="yes"/>
      <point x="134" y="365" type="line" smooth="yes"/>
      <point x="134" y="540"/>
      <point x="182" y="643"/>
      <point x="328" y="782" type="curve"/>
      <point x="258" y="782" type="line"/>
      <point x="125" y="666"/>
      <point x="70" y="539"/>
      <point x="70" y="345" type="curve" smooth="yes"/>
      <point x="70" y="151"/>
      <point x="125" y="24"/>
    </contour>
  </outline>
</glyph>
<glyph name="zero" format="1">
  <advance width="782"/>
  <unicode hex="0030"/>
  <outline>
    <contour>
      <point x="391" y="-10" type="curve" smooth="yes"/>
      <point x="596" y="-10"/>
      <point x="709" y="116"/>
      <point x="709" y="345" type="curve" smooth="yes"/>
      <point x="709" y="574"/>
      <point x="596" y="700"/>
      <point x="391" y="700" type="curve" smooth="yes"/>
      <point x="186" y="700"/>
      <point x="73" y="574"/>
      <point x="73" y="345" type="curve" smooth="yes"/>
      <point x="73" y="116"/>
      <point x="186" y="-10"/>
    </contour>
    <contour>
      <point x="391" y="48" type="curve" smooth="yes"/>
      <point x="224" y="48"/>
      <point x="143" y="135"/>
      <point x="143" y="313" type="curve" smooth="yes"/>
      <point x="143" y="377" type="line" smooth="yes"/>
      <point x="143" y="555"/>
      <point x="224" y="642"/>
      <point x="391" y="642" type="curve" smooth="yes"/>
      <point x="558" y="642"/>
      <point x="639" y="555"/>
      <point x="639" y="377" type="curve" smooth="yes"/>
      <point x="639" y="313" type="line" smooth="yes"/>
      <point x="639" y="135"/>
      <point x="558" y="48"/>
    </contour>
    <contour>
      <point x="182" y="79" type="line"/>
      <point x="227" y="59" type="line"/>
      <point x="600" y="611" type="line"/>
      <point x="555" y="631" type="line"/>
    </contour>
  </outline>
</glyph>
<glyph name="two" format="1">
  <advance width="725"/>
  <unicode hex="0032"/>
  <outline>
    <contour>
      <point x="77" y="112" type="curve" smooth="yes"/>
      <point x="77" y="0" type="line"/>
      <point x="639" y="0" type="line"/>
      <point x="639" y="200" type="line"/>
      <point x="581" y="200" type="line"/>
      <point x="581" y="54" type="line"/>
      <point x="107" y="54" type="line"/>
      <point x="142" y="30" type="line"/>
      <point x="142" y="111" type="line" smooth="yes"/>
      <point x="142" y="211"/>
      <point x="186" y="259"/>
      <point x="304" y="285" type="curve" smooth="yes"/>
      <point x="448" y="317" type="line" smooth="yes"/>
      <point x="585" y="347"/>
      <point x="647" y="404"/>
      <point x="647" y="498" type="curve" smooth="yes"/>
      <point x="647" y="498" type="line" smooth="yes"/>
      <point x="647" y="622"/>
      <point x="539" y="700"/>
      <point x="367" y="700" type="curve" smooth="yes"/>
      <point x="195" y="700"/>
      <point x="100" y="620"/>
      <point x="79" y="459" type="curve"/>
      <point x="148" y="459" type="line"/>
      <point x="148" y="459" type="line" smooth="yes"/>
      <point x="148" y="574"/>
      <point x="224" y="642"/>
      <point x="367" y="642" type="curve" smooth="yes"/>
      <point x="498" y="642"/>
      <point x="582" y="587"/>
      <point x="582" y="498" type="curve" smooth="yes"/>
      <point x="582" y="498" type="line" smooth="yes"/>
      <point x="582" y="433"/>
      <point x="538" y="399"/>
      <point x="422" y="373" type="curve" smooth="yes"/>
      <point x="278" y="341" type="line" smooth="yes"/>
      <point x="140" y="310"/>
      <point x="77" y="239"/>
    </contour>
  </outline>
</glyph>
<glyph name="five" format="1">
  <advance width="743"/>
  <unicode hex="0035"/>
  <outline>
    <contour>
      <point x="379" y="-10" type="curve" smooth="yes"/>
      <point x="562" y="-10"/>
      <point x="666" y="75"/>
      <point x="666" y="221" type="curve" smooth="yes"/>
      <point x="666" y="364"/>
      <point x="562" y="451"/>
      <point x="392" y="451" type="curve" smooth="yes"/>
      <point x="291" y="451"/>
      <point x="210" y="419"/>
      <point x="177" y="367" type="curve"/>
      <point x="153" y="367" type="line"/>
      <point x="160" y="430"/>
      <point x="163" y="462"/>
      <point x="163" y="493" type="curve" smooth="yes"/>
      <point x="163" y="636" type="line"/>
      <point x="594" y="636" type="line"/>
      <point x="594" y="494" type="line"/>
      <point x="652" y="494" type="line"/>
      <point x="652" y="690" type="line"/>
      <point x="99" y="690" type="line"/>
      <point x="99" y="323" type="line"/>
      <point x="165" y="323" type="line"/>
      <point x="216" y="370"/>
      <point x="288" y="395"/>
      <point x="379" y="395" type="curve" smooth="yes"/>
      <point x="522" y="395"/>
      <point x="598" y="335"/>
      <point x="598" y="222" type="curve" smooth="yes"/>
      <point x="598" y="220" type="line" smooth="yes"/>
      <point x="598" y="107"/>
      <point x="522" y="47"/>
      <point x="379" y="47" type="curve" smooth="yes"/>
      <point x="234" y="47"/>
      <point x="156" y="111"/>
      <point x="156" y="231" type="curve" smooth="yes"/>
      <point x="156" y="231" type="line"/>
      <point x="89" y="231" type="line"/>
      <point x="113" y="66"/>
      <point x="205" y="-10"/>
    </contour>
  </outline>
</glyph>
<glyph name="six" format="1">
  <advance width="730"/>
  <unicode hex="0036"/>
  <outline>
    <contour>
      <point x="374" y="-10" type="curve" smooth="yes"/>
      <point x="558" y="-10"/>
      <point x="662" y="75"/>
      <point x="662" y="221" type="curve" smooth="yes"/>
      <point x="662" y="364"/>
      <point x="558" y="451"/>
      <point x="387" y="451" type="curve" smooth="yes"/>
      <point x="281" y="451"/>
      <point x="213" y="419"/>
      <point x="168" y="343" type="curve"/>
      <point x="144" y="343" type="line"/>
      <point x="148" y="382"/>
      <point x="150" y="410"/>
      <point x="150" y="433" type="curve" smooth="yes"/>
      <point x="150" y="433" type="line" smooth="yes"/>
      <point x="150" y="566"/>
      <point x="231" y="643"/>
      <point x="372" y="643" type="curve" smooth="yes"/>
      <point x="504" y="643"/>
      <point x="574" y="572"/>
      <point x="574" y="506" type="curve" smooth="yes"/>
      <point x="574" y="506" type="line"/>
      <point x="644" y="506" type="line"/>
      <point x="611" y="639"/>
      <point x="523" y="700"/>
      <point x="372" y="700" type="curve" smooth="yes"/>
      <point x="168" y="700"/>
      <point x="76" y="589"/>
      <point x="76" y="345" type="curve" smooth="yes"/>
      <point x="76" y="99"/>
      <point x="167" y="-10"/>
    </contour>
    <contour>
      <point x="376" y="47" type="curve" smooth="yes"/>
      <point x="241" y="47"/>
      <point x="162" y="111"/>
      <point x="162" y="220" type="curve" smooth="yes"/>
      <point x="162" y="222" type="line" smooth="yes"/>
      <point x="162" y="331"/>
      <point x="241" y="395"/>
      <point x="376" y="395" type="curve" smooth="yes"/>
      <point x="518" y="395"/>
      <point x="594" y="335"/>
      <point x="594" y="222" type="curve" smooth="yes"/>
      <point x="594" y="220" type="line" smooth="yes"/>
      <point x="594" y="107"/>
      <point x="518" y="47"/>
    </contour>
  </outline>
</glyph>
<glyph name="eight" format="1">
  <advance width="742"/>
  <unicode hex="0038"/>
  <outline>
    <contour>
      <point x="371" y="-10" type="curve" smooth="yes"/>
      <point x="553" y="-10"/>
      <point x="667" y="66"/>
      <point x="667" y="187" type="curve" smooth="yes"/>
      <point x="667" y="276"/>
      <point x="622" y="329"/>
      <point x="537" y="340" type="curve"/>
      <point x="537" y="364" type="line"/>
      <point x="616" y="375"/>
      <point x="659" y="426"/>
      <point x="659" y="510" type="curve" smooth="yes"/>
      <point x="659" y="627"/>
      <point x="548" y="700"/>
      <point x="371" y="700" type="curve" smooth="yes"/>
      <point x="194" y="700"/>
      <point x="83" y="627"/>
      <point x="83" y="510" type="curve" smooth="yes"/>
      <point x="83" y="426"/>
      <point x="126" y="375"/>
      <point x="205" y="364" type="curve"/>
      <point x="205" y="340" type="line"/>
      <point x="120" y="329"/>
      <point x="75" y="276"/>
      <point x="75" y="187" type="curve" smooth="yes"/>
      <point x="75" y="66"/>
      <point x="189" y="-10"/>
    </contour>
    <contour>
      <point x="371" y="47" type="curve" smooth="yes"/>
      <point x="222" y="47"/>
      <point x="143" y="95"/>
      <point x="143" y="186" type="curve" smooth="yes"/>
      <point x="143" y="188" type="line" smooth="yes"/>
      <point x="143" y="279"/>
      <point x="222" y="327"/>
      <point x="371" y="327" type="curve" smooth="yes"/>
      <point x="520" y="327"/>
      <point x="599" y="279"/>
      <point x="599" y="188" type="curve" smooth="yes"/>
      <point x="599" y="186" type="line" smooth="yes"/>
      <point x="599" y="95"/>
      <point x="520" y="47"/>
    </contour>
    <contour>
      <point x="371" y="377" type="curve" smooth="yes"/>
      <point x="228" y="377"/>
      <point x="151" y="423"/>
      <point x="151" y="509" type="curve" smooth="yes"/>
      <point x="151" y="511" type="line" smooth="yes"/>
      <point x="151" y="597"/>
      <point x="228" y="643"/>
      <point x="371" y="643" type="curve" smooth="yes"/>
      <point x="514" y="643"/>
      <point x="591" y="597"/>
      <point x="591" y="511" type="curve" smooth="yes"/>
      <point x="591" y="509" type="line" smooth="yes"/>
      <point x="591" y="423"/>
      <point x="514" y="377"/>
    </contour>
  </outline>
</glyph>
<glyph name="question" format="1">
  <advance width="638"/>
  <unicode hex="003F"/>
  <outline>
    <contour>
      <point x="275" y="256" type="curve" smooth="yes"/>
      <point x="278" y="174" type="line"/>
      <point x="316" y="174" type="line"/>
      <point x="319" y="238" type="line" smooth="yes"/>
      <point x="321" y="278"/>
      <point x="346" y="303"/>
      <point x="402" y="317" type="curve" smooth="yes"/>
      <point x="529" y="348"/>
      <point x="581" y="411"/>
      <point x="581" y="506" type="curve" smooth="yes"/>
      <point x="581" y="506" type="line" smooth="yes"/>
      <point x="581" y="626"/>
      <point x="483" y="700"/>
      <point x="317" y="700" type="curve" smooth="yes"/>
      <point x="158" y="700"/>
      <point x="71" y="629"/>
      <point x="48" y="479" type="curve"/>
      <point x="114" y="479" type="line"/>
      <point x="114" y="479" type="line" smooth="yes"/>
      <point x="114" y="579"/>
      <point x="182" y="643"/>
      <point x="317" y="643" type="curve" smooth="yes"/>
      <point x="440" y="643"/>
      <point x="516" y="594"/>
      <point x="516" y="507" type="curve" smooth="yes"/>
      <point x="516" y="507" type="line" smooth="yes"/>
      <point x="516" y="443"/>
      <point x="477" y="396"/>
      <point x="376" y="372" type="curve" smooth="yes"/>
      <point x="306" y="355"/>
      <point x="273" y="317"/>
    </contour>
    <contour>
      <point x="254" y="0" type="line"/>
      <point x="340" y="0" type="line"/>
      <point x="340" y="82" type="line"/>
      <point x="254" y="82" type="line"/>
    </contour>
  </outline>
</glyph>
<glyph name="at" format="1">
  <advance width="952"/>
  <unicode hex="0040"/>
  <outline>
    <contour>
      <point x="474" y="-72" type="curve" smooth="yes"/>
      <point x="799" y="-72" type="line"/>
      <point x="799" y="-18" type="line"/>
      <point x="474" y="-18" type="line" smooth="yes"/>
      <point x="247" y="-18"/>
      <point x="126" y="94"/>
      <point x="126" y="304" type="curve" smooth="yes"/>
      <point x="126" y="306" type="line" smooth="yes"/>
      <point x="126" y="514"/>
      <point x="247" y="626"/>
      <point x="474" y="626" type="curve" smooth="yes"/>
      <point x="701" y="626"/>
      <point x="822" y="514"/>
      <point x="822" y="306" type="curve" smooth="yes"/>
      <point x="822" y="304" type="line" smooth="yes"/>
      <point x="822" y="181"/>
      <point x="785" y="115"/>
      <point x="715" y="115" type="curve" smooth="yes"/>
      <point x="677" y="115"/>
      <point x="660" y="136"/>
      <point x="660" y="182" type="curve" smooth="yes"/>
      <point x="660" y="353" type="line" smooth="yes"/>
      <point x="660" y="467"/>
      <point x="595" y="529"/>
      <point x="473" y="529" type="curve" smooth="yes"/>
      <point x="361" y="529"/>
      <point x="293" y="478"/>
      <point x="274" y="385" type="curve"/>
      <point x="338" y="385" type="line"/>
      <point x="338" y="385" type="line"/>
      <point x="338" y="428"/>
      <point x="374" y="478"/>
      <point x="471" y="478" type="curve" smooth="yes"/>
      <point x="559" y="478"/>
      <point x="599" y="438"/>
      <point x="599" y="349" type="curve" smooth="yes"/>
      <point x="599" y="313" type="line"/>
      <point x="599" y="302" type="line"/>
      <point x="599" y="234" type="line" smooth="yes"/>
      <point x="599" y="156"/>
      <point x="546" y="115"/>
      <point x="448" y="115" type="curve" smooth="yes"/>
      <point x="368" y="115"/>
      <point x="323" y="142"/>
      <point x="323" y="194" type="curve" smooth="yes"/>
      <point x="323" y="195" type="line" smooth="yes"/>
      <point x="323" y="243"/>
      <point x="361" y="271"/>
      <point x="456" y="279" type="curve" smooth="yes"/>
      <point x="599" y="291" type="line"/>
      <point x="599" y="335" type="line"/>
      <point x="438" y="321" type="line" smooth="yes"/>
      <point x="323" y="311"/>
      <point x="260" y="265"/>
      <point x="260" y="187" type="curve" smooth="yes"/>
      <point x="260" y="110"/>
      <point x="324" y="64"/>
      <point x="428" y="64" type="curve" smooth="yes"/>
      <point x="506" y="64"/>
      <point x="556" y="88"/>
      <point x="589" y="147" type="curve"/>
      <point x="610" y="147" type="line"/>
      <point x="614" y="94"/>
      <point x="652" y="64"/>
      <point x="713" y="64" type="curve" smooth="yes"/>
      <point x="818" y="64"/>
      <point x="881" y="155"/>
      <point x="881" y="304" type="curve" smooth="yes"/>
      <point x="881" y="537"/>
      <point x="726" y="680"/>
      <point x="474" y="680" type="curve" smooth="yes"/>
      <point x="222" y="680"/>
      <point x="67" y="537"/>
      <point x="67" y="304" type="curve" smooth="yes"/>
      <point x="67" y="71"/>
      <point x="222" y="-72"/>
    </contour>
  </outline>
</glyph>
<glyph name="E" format="1">
  <advance width="720"/>
  <unicode hex="0045"/>
  <outline>
    <contour>
      <point x="585" y="494" type="line"/>
      <point x="643" y="494" type="line"/>
      <point x="643" y="690" type="line"/>
      <point x="17" y="690" type="line"/>
      <point x="17" y="636" type="line"/>
      <point x="129" y="636" type="line"/>
      <point x="129" y="0" type="line"/>
      <point x="647" y="0" type="line"/>
      <point x="647" y="200" type="line"/>
      <point x="589" y="200" type="line"/>
      <point x="589" y="54" type="line"/>
      <point x="195" y="54" type="line"/>
      <point x="195" y="326" type="line"/>
      <point x="531" y="326" type="line"/>
      <point x="531" y="378" type="line"/>
      <point x="195" y="378" type="line"/>
      <point x="195" y="636" type="line"/>
      <point x="585" y="636" type="line"/>
    </contour>
    <contour>
      <point x="647" y="0" type="move" name="ogonek"/>
    </contour>
    <contour>
      <point x="363" y="690" type="move" name="top"/>
    </contour>
  </outline>
</glyph>
<glyph name="G" format="1">
  <advance width="832"/>
  <unicode hex="0047"/>
  <outline>
    <contour>
      <point x="404" y="-10" type="curve" smooth="yes"/>
      <point x="526" y="-10"/>
      <point x="615" y="37"/>
      <point x="665" y="128" type="curve"/>
      <point x="689" y="128" type="line"/>
      <point x="689" y="0" type="line"/>
      <point x="741" y="0" type="line"/>
      <point x="741" y="349" type="line"/>
      <point x="412" y="349" type="line"/>
      <point x="412" y="297" type="line"/>
      <point x="687" y="297" type="line"/>
      <point x="677" y="308" type="line"/>
      <point x="677" y="298" type="line" smooth="yes"/>
      <point x="677" y="144"/>
      <point x="590" y="48"/>
      <point x="408" y="48" type="curve" smooth="yes"/>
      <point x="226" y="48"/>
      <point x="139" y="143"/>
      <point x="139" y="344" type="curve" smooth="yes"/>
      <point x="139" y="346" type="line" smooth="yes"/>
      <point x="139" y="546"/>
      <point x="226" y="642"/>
      <point x="407" y="642" type="curve" smooth="yes"/>
      <point x="587" y="642"/>
      <point x="658" y="545"/>
      <point x="658" y="477" type="curve"/>
      <point x="658" y="477" type="line"/>
      <point x="727" y="477" type="line"/>
      <point x="688" y="617"/>
      <point x="574" y="700"/>
      <point x="407" y="700" type="curve" smooth="yes"/>
      <point x="199" y="700"/>
      <point x="69" y="564"/>
      <point x="69" y="345" type="curve" smooth="yes"/>
      <point x="69" y="126"/>
      <point x="195" y="-10"/>
    </contour>
  </outline>
</glyph>
<glyph name="I" format="1">
  <advance width="417"/>
  <unicode hex="0049"/>
  <outline>
    <contour>
      <point x="52" y="0" type="line"/>
      <point x="364" y="0" type="line"/>
      <point x="364" y="54" type="line"/>
      <point x="241" y="54" type="line"/>
      <point x="241" y="636" type="line"/>
      <point x="364" y="636" type="line"/>
      <point x="364" y="690" type="line"/>
      <point x="52" y="690" type="line"/>
      <point x="52" y="636" type="line"/>
      <point x="175" y="636" type="line"/>
      <point x="175" y="54" type="line"/>
      <point x="52" y="54" type="line"/>
    </contour>
    <contour>
      <point x="208" y="690" type="move" name="top"/>
    </contour>
  </outline>
</glyph>
<glyph name="M" format="1">
  <advance width="1032"/>
  <unicode hex="004D"/>
  <outline>
    <contour>
      <point x="120" y="0" type="line"/>
      <point x="184" y="0" type="line"/>
      <point x="184" y="632" type="line"/>
      <point x="208" y="632" type="line"/>
      <point x="488" y="0" type="line"/>
      <point x="542" y="0" type="line"/>
      <point x="822" y="632" type="line"/>
      <point x="846" y="632" type="line"/>
      <point x="846" y="0" type="line"/>
      <point x="912" y="0" type="line"/>
      <point x="912" y="690" type="line"/>
      <point x="784" y="690" type="line"/>
      <point x="528" y="112" type="line"/>
      <point x="504" y="112" type="line"/>
      <point x="248" y="690" type="line"/>
      <point x="120" y="690" type="line"/>
    </contour>
  </outline>
</glyph>
<glyph name="O" format="1">
  <advance width="828"/>
  <unicode hex="004F"/>
  <outline>
    <contour>
      <point x="414" y="-10" type="curve" smooth="yes"/>
      <point x="628" y="-10"/>
      <point x="760" y="126"/>
      <point x="760" y="345" type="curve" smooth="yes"/>
      <point x="760" y="564"/>
      <point x="628" y="700"/>
      <point x="414" y="700" type="curve" smooth="yes"/>
      <point x="200" y="700"/>
      <point x="68" y="564"/>
      <point x="68" y="345" type="curve" smooth="yes"/>
      <point x="68" y="126"/>
      <point x="200" y="-10"/>
    </contour>
    <contour>
      <point x="414" y="48" type="curve" smooth="yes"/>
      <point x="228" y="48"/>
      <point x="138" y="144"/>
      <point x="138" y="344" type="curve" smooth="yes"/>
      <point x="138" y="346" type="line" smooth="yes"/>
      <point x="138" y="546"/>
      <point x="228" y="642"/>
      <point x="414" y="642" type="curve" smooth="yes"/>
      <point x="600" y="642"/>
      <point x="690" y="546"/>
      <point x="690" y="346" type="curve" smooth="yes"/>
      <point x="690" y="344" type="line" smooth="yes"/>
      <point x="690" y="144"/>
      <point x="600" y="48"/>
    </contour>
    <contour>
      <point x="414" y="690" type="move" name="top"/>
    </contour>
  </outline>
</glyph>
<glyph name="Q" format="1">
  <advance width="828"/>
  <unicode hex="0051"/>
  <outline>
    <contour>
      <point x="430" y="-132" type="curve" smooth="yes"/>
      <point x="668" y="-132" type="line"/>
      <point x="668" y="-80" type="line"/>
      <point x="446" y="-80" type="line"/>
      <point x="446" y="-9" type="line"/>
      <point x="641" y="4"/>
      <point x="760" y="137"/>
      <point x="760" y="345" type="curve" smooth="yes"/>
      <point x="760" y="564"/>
      <point x="628" y="700"/>
      <point x="414" y="700" type="curve" smooth="yes"/>
      <point x="200" y="700"/>
      <point x="68" y="564"/>
      <point x="68" y="345" type="curve" smooth="yes"/>
      <point x="68" y="126"/>
      <point x="200" y="-10"/>
      <point x="414" y="-10" type="curve"/>
      <point x="382" y="25" type="line"/>
      <point x="382" y="-84" type="line" smooth="yes"/>
      <point x="382" y="-115"/>
      <point x="399" y="-132"/>
    </contour>
    <contour>
      <point x="414" y="48" type="curve" smooth="yes"/>
      <point x="228" y="48"/>
      <point x="138" y="144"/>
      <point x="138" y="344" type="curve" smooth="yes"/>
      <point x="138" y="346" type="line" smooth="yes"/>
      <point x="138" y="546"/>
      <point x="228" y="642"/>
      <point x="414" y="642" type="curve" smooth="yes"/>
      <point x="600" y="642"/>
      <point x="690" y="546"/>
      <point x="690" y="346" type="curve" smooth="yes"/>
      <point x="690" y="344" type="line" smooth="yes"/>
      <point x="690" y="144"/>
      <point x="600" y="48"/>
    </contour>
    <contour>
      <point x="414" y="690" type="move" name="top"/>
    </contour>
  </outline>
</glyph>
<glyph name="S" format="1">
  <advance width="738"/>
  <unicode hex="0053"/>
  <outline>
    <contour>
      <point x="373" y="-10" type="curve" smooth="yes"/>
      <point x="560" y="-10"/>
      <point x="669" y="67"/>
      <point x="669" y="193" type="curve" smooth="yes"/>
      <point x="669" y="290"/>
      <point x="604" y="345"/>
      <point x="468" y="364" type="curve" smooth="yes"/>
      <point x="296" y="388" type="line" smooth="yes"/>
      <point x="185" y="403"/>
      <point x="140" y="438"/>
      <point x="140" y="503" type="curve" smooth="yes"/>
      <point x="140" y="503" type="line" smooth="yes"/>
      <point x="140" y="591"/>
      <point x="225" y="642"/>
      <point x="365" y="642" type="curve" smooth="yes"/>
      <point x="524" y="642"/>
      <point x="600" y="568"/>
      <point x="600" y="459" type="curve" smooth="yes"/>
      <point x="600" y="459" type="line"/>
      <point x="667" y="459" type="line"/>
      <point x="642" y="624"/>
      <point x="546" y="700"/>
      <point x="365" y="700" type="curve" smooth="yes"/>
      <point x="181" y="700"/>
      <point x="73" y="623"/>
      <point x="73" y="496" type="curve" smooth="yes"/>
      <point x="73" y="400"/>
      <point x="137" y="345"/>
      <point x="272" y="326" type="curve" smooth="yes"/>
      <point x="444" y="302" type="line" smooth="yes"/>
      <point x="557" y="286"/>
      <point x="602" y="253"/>
      <point x="602" y="187" type="curve" smooth="yes"/>
      <point x="602" y="187" type="line" smooth="yes"/>
      <point x="602" y="99"/>
      <point x="516" y="48"/>
      <point x="373" y="48" type="curve" smooth="yes"/>
      <point x="214" y="48"/>
      <point x="135" y="119"/>
      <point x="135" y="231" type="curve" smooth="yes"/>
      <point x="135" y="231" type="line"/>
      <point x="67" y="231" type="line"/>
      <point x="92" y="66"/>
      <point x="190" y="-10"/>
    </contour>
    <contour>
      <point x="361" y="690" type="move" name="top"/>
    </contour>
  </outline>
</glyph>
<glyph name="Z" format="1">
  <advance width="681"/>
  <unicode hex="005A"/>
  <outline>
    <contour>
      <point x="54" y="0" type="line"/>
      <point x="628" y="0" type="line"/>
      <point x="628" y="54" type="line"/>
      <point x="139" y="54" type="line"/>
      <point x="624" y="636" type="line"/>
      <point x="624" y="690" type="line"/>
      <point x="58" y="690" type="line"/>
      <point x="58" y="636" type="line"/>
      <point x="539" y="636" type="line"/>
      <point x="54" y="54" type="line"/>
    </contour>
    <contour>
      <point x="341" y="690" type="move" name="top"/>
    </contour>
  </outline>
</glyph>
<glyph name="c" format="1">
  <advance width="660"/>
  <unicode hex="0063"/>
  <outline>
    <contour>
      <point x="335" y="-10" type="curve" smooth="yes"/>
      <point x="474" y="-10"/>
      <point x="570" y="63"/>
      <point x="595" y="183" type="curve"/>
      <point x="528" y="183" type="line"/>
      <point x="528" y="183" type="line"/>
      <point x="528" y="129"/>
      <point x="472" y="46"/>
      <point x="335" y="46" type="curve" smooth="yes"/>
      <point x="202" y="46"/>
      <point x="133" y="117"/>
      <point x="133" y="266" type="curve" smooth="yes"/>
      <point x="133" y="268" type="line" smooth="yes"/>
      <point x="133" y="417"/>
      <point x="202" y="488"/>
      <point x="335" y="488" type="curve" smooth="yes"/>
      <point x="472" y="488"/>
      <point x="528" y="405"/>
      <point x="528" y="359" type="curve"/>
      <point x="528" y="359" type="line"/>
      <point x="593" y="359" type="line"/>
      <point x="566" y="474"/>
      <point x="471" y="544"/>
      <point x="335" y="544" type="curve" smooth="yes"/>
      <point x="170" y="544"/>
      <point x="65" y="439"/>
      <point x="65" y="267" type="curve" smooth="yes"/>
      <point x="65" y="95"/>
      <point x="170" y="-10"/>
    </contour>
    <contour>
      <point x="335" y="0" type="move" name="bottom"/>
    </contour>
    <contour>
      <point x="335" y="534" type="move" name="top"/>
    </contour>
  </outline>
</glyph>
<glyph name="e" format="1">
  <advance width="668"/>
  <unicode hex="0065"/>
  <outline>
    <contour>
      <point x="339" y="-10" type="curve" smooth="yes"/>
      <point x="471" y="-10"/>
      <point x="562" y="53"/>
      <point x="593" y="161" type="curve"/>
      <point x="524" y="161" type="line"/>
      <point x="524" y="161" type="line"/>
      <point x="524" y="121"/>
      <point x="479" y="46"/>
      <point x="339" y="46" type="curve" smooth="yes"/>
      <point x="199" y="46"/>
      <point x="133" y="117"/>
      <point x="133" y="266" type="curve" smooth="yes"/>
      <point x="133" y="269" type="line" smooth="yes"/>
      <point x="133" y="418"/>
      <point x="199" y="489"/>
      <point x="339" y="489" type="curve" smooth="yes"/>
      <point x="479" y="489"/>
      <point x="545" y="418"/>
      <point x="545" y="269" type="curve" smooth="yes"/>
      <point x="545" y="266" type="line"/>
      <point x="576" y="308" type="line"/>
      <point x="108" y="308" type="line"/>
      <point x="108" y="260" type="line"/>
      <point x="605" y="260" type="line"/>
      <point x="605" y="287" type="line" smooth="yes"/>
      <point x="605" y="445"/>
      <point x="502" y="544"/>
      <point x="339" y="544" type="curve" smooth="yes"/>
      <point x="171" y="544"/>
      <point x="65" y="437"/>
      <point x="65" y="267" type="curve" smooth="yes"/>
      <point x="65" y="97"/>
      <point x="171" y="-10"/>
    </contour>
    <contour>
      <point x="424" y="0" type="move" name="ogonek"/>
    </contour>
    <contour>
      <point x="339" y="534" type="move" name="top"/>
    </contour>
  </outline>
</glyph>
<glyph name="h" format="1">
  <advance width="687"/>
  <unicode hex="0068"/>
  <outline>
    <contour>
      <point x="103" y="0" type="line"/>
      <point x="167" y="0" type="line"/>
      <point x="167" y="311" type="line" smooth="yes"/>
      <point x="167" y="433"/>
      <point x="220" y="488"/>
      <point x="337" y="488" type="curve" smooth="yes"/>
      <point x="454" y="488"/>
      <point x="507" y="433"/>
      <point x="507" y="311" type="curve" smooth="yes"/>
      <point x="507" y="0" type="line"/>
      <point x="667" y="0" type="line"/>
      <point x="667" y="52" type="line"/>
      <point x="571" y="52" type="line"/>
      <point x="571" y="325" type="line" smooth="yes"/>
      <point x="571" y="468"/>
      <point x="499" y="544"/>
      <point x="364" y="544" type="curve" smooth="yes"/>
      <point x="276" y="544"/>
      <point x="218" y="513"/>
      <point x="181" y="450" type="curve"/>
      <point x="157" y="450" type="line"/>
      <point x="164" y="513"/>
      <point x="167" y="545"/>
      <point x="167" y="576" type="curve" smooth="yes"/>
      <point x="167" y="690" type="line"/>
      <point x="7" y="690" type="line"/>
      <point x="7" y="638" type="line"/>
      <point x="103" y="638" type="line"/>
    </contour>
  </outline>
</glyph>
<glyph name="k" format="1">
  <advance width="666"/>
  <unicode hex="006B"/>
  <outline>
    <contour>
      <point x="104" y="0" type="line"/>
      <point x="168" y="0" type="line"/>
      <point x="168" y="251" type="line"/>
      <point x="272" y="251" type="line"/>
      <point x="509" y="0" type="line"/>
      <point x="644" y="0" type="line"/>
      <point x="644" y="52" type="line"/>
      <point x="548" y="52" type="line"/>
      <point x="307" y="305" type="line"/>
      <point x="315" y="258" type="line"/>
      <point x="620" y="534" type="line"/>
      <point x="527" y="534" type="line"/>
      <point x="272" y="301" type="line"/>
      <point x="168" y="301" type="line"/>
      <point x="168" y="690" type="line"/>
      <point x="8" y="690" type="line"/>
      <point x="8" y="638" type="line"/>
      <point x="104" y="638" type="line"/>
    </contour>
  </outline>
</glyph>
<glyph name="p" format="1">
  <advance width="717"/>
  <unicode hex="0070"/>
  <outline>
    <contour>
      <point x="120" y="-132" type="line"/>
      <point x="184" y="-132" type="line"/>
      <point x="184" y="-26" type="line" smooth="yes"/>
      <point x="184" y="5"/>
      <point x="181" y="37"/>
      <point x="174" y="100" type="curve"/>
      <point x="198" y="100" type="line"/>
      <point x="244" y="24"/>
      <point x="305" y="-10"/>
      <point x="395" y="-10" type="curve" smooth="yes"/>
      <point x="553" y="-10"/>
      <point x="652" y="97"/>
      <point x="652" y="267" type="curve" smooth="yes"/>
      <point x="652" y="437"/>
      <point x="553" y="544"/>
      <point x="395" y="544" type="curve" smooth="yes"/>
      <point x="305" y="544"/>
      <point x="243" y="508"/>
      <point x="196" y="430" type="curve"/>
      <point x="172" y="430" type="line"/>
      <point x="172" y="534" type="line"/>
      <point x="24" y="534" type="line"/>
      <point x="24" y="482" type="line"/>
      <point x="120" y="482" type="line"/>
    </contour>
    <contour>
      <point x="384" y="46" type="curve" smooth="yes"/>
      <point x="248" y="46"/>
      <point x="184" y="117"/>
      <point x="184" y="266" type="curve" smooth="yes"/>
      <point x="184" y="268" type="line" smooth="yes"/>
      <point x="184" y="417"/>
      <point x="248" y="488"/>
      <point x="384" y="488" type="curve" smooth="yes"/>
      <point x="520" y="488"/>
      <point x="584" y="417"/>
      <point x="584" y="268" type="curve" smooth="yes"/>
      <point x="584" y="266" type="line" smooth="yes"/>
      <point x="584" y="117"/>
      <point x="520" y="46"/>
    </contour>
  </outline>
</glyph>
<glyph name="s" format="1">
  <advance width="622"/>
  <unicode hex="0073"/>
  <outline>
    <contour>
      <point x="313" y="-10" type="curve" smooth="yes"/>
      <point x="469" y="-10"/>
      <point x="559" y="50"/>
      <point x="559" y="152" type="curve" smooth="yes"/>
      <point x="559" y="231"/>
      <point x="506" y="272"/>
      <point x="390" y="288" type="curve" smooth="yes"/>
      <point x="258" y="306" type="line" smooth="yes"/>
      <point x="167" y="318"/>
      <point x="132" y="340"/>
      <point x="132" y="387" type="curve" smooth="yes"/>
      <point x="132" y="452"/>
      <point x="199" y="489"/>
      <point x="309" y="489" type="curve" smooth="yes"/>
      <point x="454" y="489"/>
      <point x="491" y="420"/>
      <point x="491" y="373" type="curve" smooth="yes"/>
      <point x="491" y="373" type="line"/>
      <point x="557" y="373" type="line"/>
      <point x="533" y="490"/>
      <point x="453" y="544"/>
      <point x="309" y="544" type="curve" smooth="yes"/>
      <point x="156" y="544"/>
      <point x="67" y="484"/>
      <point x="67" y="383" type="curve" smooth="yes"/>
      <point x="67" y="304"/>
      <point x="119" y="262"/>
      <point x="234" y="246" type="curve" smooth="yes"/>
      <point x="366" y="228" type="line" smooth="yes"/>
      <point x="459" y="215"/>
      <point x="494" y="194"/>
      <point x="494" y="147" type="curve" smooth="yes"/>
      <point x="494" y="82"/>
      <point x="425" y="45"/>
      <point x="313" y="45" type="curve" smooth="yes"/>
      <point x="166" y="45"/>
      <point x="128" y="114"/>
      <point x="128" y="161" type="curve" smooth="yes"/>
      <point x="128" y="161" type="line"/>
      <point x="61" y="161" type="line"/>
      <point x="85" y="44"/>
      <point x="166" y="-10"/>
    </contour>
    <contour>
      <point x="305" y="534" type="move" name="top"/>
    </contour>
  </outline>
</glyph>
<glyph name="u" format="1">
  <advance width="706"/>
  <unicode hex="0075"/>
  <outline>
    <contour>
      <point x="324" y="-10" type="curve" smooth="yes"/>
      <point x="412" y="-10"/>
      <point x="470" y="21"/>
      <point x="509" y="88" type="curve"/>
      <point x="533" y="88" type="line"/>
      <point x="533" y="48" type="line" smooth="yes"/>
      <point x="533" y="17"/>
      <point x="550" y="0"/>
      <point x="581" y="0" type="curve" smooth="yes"/>
      <point x="681" y="0" type="line"/>
      <point x="681" y="52" type="line"/>
      <point x="585" y="52" type="line"/>
      <point x="585" y="534" type="line"/>
      <point x="521" y="534" type="line"/>
      <point x="521" y="223" type="line" smooth="yes"/>
      <point x="521" y="101"/>
      <point x="468" y="46"/>
      <point x="351" y="46" type="curve" smooth="yes"/>
      <point x="234" y="46"/>
      <point x="181" y="101"/>
      <point x="181" y="223" type="curve" smooth="yes"/>
      <point x="181" y="534" type="line"/>
      <point x="21" y="534" type="line"/>
      <point x="21" y="482" type="line"/>
      <point x="117" y="482" type="line"/>
      <point x="117" y="209" type="line" smooth="yes"/>
      <point x="117" y="66"/>
      <point x="189" y="-10"/>
    </contour>
    <contour>
      <point x="351" y="534" type="move" name="top"/>
    </contour>
  </outline>
</glyph>
<glyph name="v" format="1">
  <advance width="628"/>
  <unicode hex="0076"/>
  <outline>
    <contour>
      <point x="258" y="0" type="line"/>
      <point x="370" y="0" type="line"/>
      <point x="592" y="534" type="line"/>
      <point x="524" y="534" type="line"/>
      <point x="327" y="56" type="line"/>
      <point x="303" y="56" type="line"/>
      <point x="106" y="534" type="line"/>
      <point x="36" y="534" type="line"/>
    </contour>
  </outline>
</glyph>
<glyph name="w" format="1">
  <advance width="1010"/>
  <unicode hex="0077"/>
  <outline>
    <contour>
      <point x="234" y="0" type="line"/>
      <point x="342" y="0" type="line"/>
      <point x="493" y="418" type="line"/>
      <point x="517" y="418" type="line"/>
      <point x="668" y="0" type="line"/>
      <point x="776" y="0" type="line"/>
      <point x="971" y="534" type="line"/>
      <point x="905" y="534" type="line"/>
      <point x="733" y="56" type="line"/>
      <point x="709" y="56" type="line"/>
      <point x="536" y="534" type="line"/>
      <point x="476" y="534" type="line"/>
      <point x="303" y="56" type="line"/>
      <point x="279" y="56" type="line"/>
      <point x="107" y="534" type="line"/>
      <point x="39" y="534" type="line"/>
    </contour>
  </outline>
</glyph>
<glyph name="z" format="1">
  <advance width="578"/>
  <unicode hex="007A"/>
  <outline>
    <contour>
      <point x="55" y="0" type="line"/>
      <point x="523" y="0" type="line"/>
      <point x="523" y="52" type="line"/>
      <point x="139" y="52" type="line"/>
      <point x="519" y="482" type="line"/>
      <point x="519" y="534" type="line"/>
      <point x="59" y="534" type="line"/>
      <point x="59" y="482" type="line"/>
      <point x="435" y="482" type="line"/>
      <point x="55" y="52" type="line"/>
    </contour>
    <contour>
      <point x="289" y="534" type="move" name="top"/>
    </contour>
  </outline>
</glyph>
<glyph name="braceleft" format="1">
  <advance width="422"/>
  <unicode hex="007B"/>
  <outline>
    <contour>
      <point x="193" y="-92" type="curve" smooth="yes"/>
      <point x="379" y="-92" type="line"/>
      <point x="379" y="-40" type="line"/>
      <point x="213" y="-40" type="line" smooth="yes"/>
      <point x="197" y="-40"/>
      <point x="189" y="-32"/>
      <point x="189" y="-16" type="curve" smooth="yes"/>
      <point x="189" y="27"/>
      <point x="245" y="204"/>
      <point x="245" y="274" type="curve" smooth="yes"/>
      <point x="245" y="312"/>
      <point x="229" y="333"/>
      <point x="199" y="337" type="curve"/>
      <point x="199" y="353" type="line"/>
      <point x="229" y="357"/>
      <point x="245" y="378"/>
      <point x="245" y="416" type="curve" smooth="yes"/>
      <point x="245" y="486"/>
      <point x="189" y="663"/>
      <point x="189" y="706" type="curve" smooth="yes"/>
      <point x="189" y="722"/>
      <point x="197" y="730"/>
      <point x="213" y="730" type="curve" smooth="yes"/>
      <point x="379" y="730" type="line"/>
      <point x="379" y="782" type="line"/>
      <point x="193" y="782" type="line" smooth="yes"/>
      <point x="149" y="782"/>
      <point x="127" y="760"/>
      <point x="127" y="716" type="curve" smooth="yes"/>
      <point x="127" y="645"/>
      <point x="185" y="477"/>
      <point x="185" y="414" type="curve" smooth="yes"/>
      <point x="185" y="385"/>
      <point x="173" y="371"/>
      <point x="150" y="371" type="curve" smooth="yes"/>
      <point x="33" y="371" type="line"/>
      <point x="33" y="319" type="line"/>
      <point x="150" y="319" type="line" smooth="yes"/>
      <point x="173" y="319"/>
      <point x="185" y="305"/>
      <point x="185" y="276" type="curve" smooth="yes"/>
      <point x="185" y="213"/>
      <point x="127" y="45"/>
      <point x="127" y="-26" type="curve" smooth="yes"/>
      <point x="127" y="-70"/>
      <point x="149" y="-92"/>
    </contour>
  </outline>
</glyph>
<glyph name="braceright" format="1">
  <advance width="422"/>
  <unicode hex="007D"/>
  <outline>
    <contour>
      <point x="229" y="782" type="curve" smooth="yes"/>
      <point x="43" y="782" type="line"/>
      <point x="43" y="730" type="line"/>
      <point x="209" y="730" type="line" smooth="yes"/>
      <point x="225" y="730"/>
      <point x="233" y="722"/>
      <point x="233" y="706" type="curve" smooth="yes"/>
      <point x="233" y="663"/>
      <point x="177" y="486"/>
      <point x="177" y="416" type="curve" smooth="yes"/>
      <point x="177" y="378"/>
      <point x="193" y="357"/>
      <point x="223" y="353" type="curve"/>
      <point x="223" y="337" type="line"/>
      <point x="193" y="333"/>
      <point x="177" y="312"/>
      <point x="177" y="274" type="curve" smooth="yes"/>
      <point x="177" y="204"/>
      <point x="233" y="27"/>
      <point x="233" y="-16" type="curve" smooth="yes"/>
      <point x="233" y="-32"/>
      <point x="225" y="-40"/>
      <point x="209" y="-40" type="curve" smooth="yes"/>
      <point x="43" y="-40" type="line"/>
      <point x="43" y="-92" type="line"/>
      <point x="229" y="-92" type="line" smooth="yes"/>
      <point x="273" y="-92"/>
      <point x="295" y="-70"/>
      <point x="295" y="-26" type="curve" smooth="yes"/>
      <point x="295" y="45"/>
      <point x="237" y="213"/>
      <point x="237" y="276" type="curve" smooth="yes"/>
      <point x="237" y="305"/>
      <point x="249" y="319"/>
      <point x="272" y="319" type="curve" smooth="yes"/>
      <point x="389" y="319" type="line"/>
      <point x="389" y="371" type="line"/>
      <point x="272" y="371" type="line" smooth="yes"/>
      <point x="249" y="371"/>
      <point x="237" y="385"/>
      <point x="237" y="414" type="curve" smooth="yes"/>
      <point x="237" y="477"/>
      <point x="295" y="645"/>
      <point x="295" y="716" type="curve" smooth="yes"/>
      <point x="295" y="760"/>
      <point x="273" y="782"/>
    </contour>
  </outline>
</glyph>
<glyph name="exclamdown" format="1">
  <advance width="298"/>
  <unicode hex="00A1"/>
  <outline>
    <contour>
      <point x="168" y="360" type="line"/>
      <point x="130" y="360" type="line"/>
      <point x="113" y="-102" type="line"/>
      <point x="113" y="-156" type="line"/>
      <point x="185" y="-156" type="line"/>
      <point x="185" y="-102" type="line"/>
    </contour>
    <contour>
      <point x="192" y="534" type="line"/>
      <point x="106" y="534" type="line"/>
      <point x="106" y="452" type="line"/>
      <point x="192" y="452" type="line"/>
    </contour>
  </outline>
</glyph>
<glyph name="sterling" format="1">
  <advance width="721"/>
  <unicode hex="00A3"/>
  <outline>
    <contour>
      <point x="84" y="54" type="curve"/>
      <point x="84" y="0" type="line"/>
      <point x="656" y="0" type="line"/>
      <point x="656" y="58" type="line"/>
      <point x="163" y="58" type="line"/>
      <point x="216" y="90"/>
      <point x="256" y="149"/>
      <point x="256" y="227" type="curve" smooth="yes"/>
      <point x="256" y="324"/>
      <point x="184" y="397"/>
      <point x="184" y="490" type="curve" smooth="yes"/>
      <point x="184" y="493" type="line" smooth="yes"/>
      <point x="184" y="589"/>
      <point x="260" y="642"/>
      <point x="378" y="642" type="curve" smooth="yes"/>
      <point x="489" y="642"/>
      <point x="587" y="603"/>
      <point x="587" y="459" type="curve" smooth="yes"/>
      <point x="587" y="459" type="line"/>
      <point x="651" y="459" type="line"/>
      <point x="636" y="636"/>
      <point x="528" y="700"/>
      <point x="378" y="700" type="curve" smooth="yes"/>
      <point x="213" y="700"/>
      <point x="120" y="603"/>
      <point x="120" y="491" type="curve" smooth="yes"/>
      <point x="120" y="395"/>
      <point x="198" y="326"/>
      <point x="198" y="227" type="curve" smooth="yes"/>
      <point x="198" y="153"/>
      <point x="146" y="100"/>
    </contour>
    <contour>
      <point x="63" y="309" type="line"/>
      <point x="508" y="309" type="line"/>
      <point x="508" y="361" type="line"/>
      <point x="63" y="361" type="line"/>
    </contour>
  </outline>
</glyph>
<glyph name="currency" format="1">
  <advance width="656"/>
  <unicode hex="00A4"/>
  <outline>
    <contour>
      <point x="332" y="130" type="curve" smooth="yes"/>
      <point x="499" y="130"/>
      <point x="555" y="237"/>
      <point x="555" y="347" type="curve" smooth="yes"/>
      <point x="555" y="457"/>
      <point x="499" y="564"/>
      <point x="332" y="564" type="curve" smooth="yes"/>
      <point x="164" y="564"/>
      <point x="98" y="457"/>
      <point x="98" y="347" type="curve" smooth="yes"/>
      <point x="98" y="237"/>
      <point x="164" y="130"/>
    </contour>
    <contour>
      <point x="137" y="81" type="line"/>
      <point x="204" y="167" type="line"/>
      <point x="162" y="210" type="line"/>
      <point x="90" y="118" type="line"/>
    </contour>
    <contour>
      <point x="523" y="81" type="line"/>
      <point x="570" y="118" type="line"/>
      <point x="498" y="210" type="line"/>
      <point x="456" y="167" type="line"/>
    </contour>
    <contour>
      <point x="332" y="186" type="curve" smooth="yes"/>
      <point x="192" y="186"/>
      <point x="164" y="257"/>
      <point x="164" y="346" type="curve" smooth="yes"/>
      <point x="164" y="348" type="line" smooth="yes"/>
      <point x="164" y="437"/>
      <point x="192" y="508"/>
      <point x="332" y="508" type="curve" smooth="yes"/>
      <point x="471" y="508"/>
      <point x="489" y="437"/>
      <point x="489" y="348" type="curve" smooth="yes"/>
      <point x="489" y="346" type="line" smooth="yes"/>
      <point x="489" y="257"/>
      <point x="471" y="186"/>
    </contour>
    <contour>
      <point x="162" y="483" type="line"/>
      <point x="204" y="526" type="line"/>
      <point x="137" y="612" type="line"/>
      <point x="90" y="575" type="line"/>
    </contour>
    <contour>
      <point x="498" y="483" type="line"/>
      <point x="570" y="575" type="line"/>
      <point x="523" y="612" type="line"/>
      <point x="456" y="526" type="line"/>
    </contour>
  </outline>
</glyph>
<glyph name="yen" format="1">
  <advance width="736"/>
  <unicode hex="00A5"/>
  <outline>
    <contour>
      <point x="335" y="0" type="line"/>
      <point x="401" y="0" type="line"/>
      <point x="401" y="294" type="line"/>
      <point x="706" y="690" type="line"/>
      <point x="632" y="690" type="line"/>
      <point x="381" y="362" type="line"/>
      <point x="357" y="362" type="line"/>
      <point x="106" y="690" type="line"/>
      <point x="30" y="690" type="line"/>
      <point x="335" y="294" type="line"/>
    </contour>
    <contour>
      <point x="131" y="168" type="line"/>
      <point x="605" y="168" type="line"/>
      <point x="605" y="218" type="line"/>
      <point x="131" y="218" type="line"/>
    </contour>
    <contour>
      <point x="131" y="294" type="line"/>
      <point x="605" y="294" type="line"/>
      <point x="605" y="344" type="line"/>
      <point x="131" y="344" type="line"/>
    </contour>
  </outline>
</glyph>
<glyph name="copyright" format="1">
  <advance width="910"/>
  <unicode hex="00A9"/>
  <outline>
    <contour>
      <point x="455" y="-40" type="curve" smooth="yes"/>
      <point x="688" y="-40"/>
      <point x="852" y="119"/>
      <point x="852" y="345" type="curve" smooth="yes"/>
      <point x="852" y="571"/>
      <point x="688" y="730"/>
      <point x="455" y="730" type="curve" smooth="yes"/>
      <point x="222" y="730"/>
      <point x="58" y="571"/>
      <point x="58" y="345" type="curve" smooth="yes"/>
      <point x="58" y="119"/>
      <point x="222" y="-40"/>
    </contour>
    <contour>
      <point x="455" y="14" type="curve" smooth="yes"/>
      <point x="254" y="14"/>
      <point x="113" y="150"/>
      <point x="113" y="344" type="curve" smooth="yes"/>
      <point x="113" y="346" type="line" smooth="yes"/>
      <point x="113" y="540"/>
      <point x="254" y="676"/>
      <point x="455" y="676" type="curve" smooth="yes"/>
      <point x="656" y="676"/>
      <point x="797" y="540"/>
      <point x="797" y="346" type="curve" smooth="yes"/>
      <point x="797" y="344" type="line" smooth="yes"/>
      <point x="797" y="150"/>
      <point x="656" y="14"/>
    </contour>
    <contour>
      <point x="455" y="100" type="curve" smooth="yes"/>
      <point x="578" y="100"/>
      <point x="668" y="166"/>
      <point x="690" y="273" type="curve"/>
      <point x="624" y="273" type="line"/>
      <point x="624" y="273" type="line"/>
      <point x="624" y="223"/>
      <point x="577" y="156"/>
      <point x="455" y="156" type="curve" smooth="yes"/>
      <point x="334" y="156"/>
      <point x="275" y="212"/>
      <point x="275" y="344" type="curve" smooth="yes"/>
      <point x="275" y="346" type="line" smooth="yes"/>
      <point x="275" y="478"/>
      <point x="334" y="534"/>
      <point x="455" y="534" type="curve" smooth="yes"/>
      <point x="577" y="534"/>
      <point x="624" y="467"/>
      <point x="624" y="425" type="curve" smooth="yes"/>
      <point x="624" y="425" type="line"/>
      <point x="688" y="425" type="line"/>
      <point x="663" y="528"/>
      <point x="575" y="590"/>
      <point x="455" y="590" type="curve" smooth="yes"/>
      <point x="307" y="590"/>
      <point x="210" y="495"/>
      <point x="210" y="345" type="curve" smooth="yes"/>
      <point x="210" y="195"/>
      <point x="307" y="100"/>
    </contour>
  </outline>
</glyph>
<glyph name="guillemetleft" format="1">
  <advance width="623"/>
  <unicode hex="00AB"/>
  <outline>
    <contour>
      <point x="483" y="82" type="line"/>
      <point x="557" y="82" type="line"/>
      <point x="353" y="278" type="line"/>
      <point x="353" y="290" type="line"/>
      <point x="557" y="486" type="line"/>
      <point x="483" y="486" type="line"/>
      <point x="287" y="306" type="line"/>
      <point x="287" y="262" type="line"/>
    </contour>
    <contour>
      <point x="253" y="82" type="line"/>
      <point x="327" y="82" type="line"/>
      <point x="123" y="278" type="line"/>
      <point x="123" y="290" type="line"/>
      <point x="327" y="486" type="line"/>
      <point x="253" y="486" type="line"/>
      <point x="57" y="306" type="line"/>
      <point x="57" y="262" type="line"/>
    </contour>
  </outline>
</glyph>
<glyph name="registered" format="1">
  <advance width="522"/>
  <unicode hex="00AE"/>
  <outline>
    <contour>
      <point x="261" y="293" type="curve" smooth="yes"/>
      <point x="375" y="293"/>
      <point x="466" y="383"/>
      <point x="466" y="496" type="curve" smooth="yes"/>
      <point x="466" y="610"/>
      <point x="375" y="700"/>
      <point x="261" y="700" type="curve" smooth="yes"/>
      <point x="147" y="700"/>
      <point x="56" y="610"/>
      <point x="56" y="496" type="curve" smooth="yes"/>
      <point x="56" y="383"/>
      <point x="147" y="293"/>
    </contour>
    <contour>
      <point x="306" y="382" type="line"/>
      <point x="352" y="382" type="line"/>
      <point x="301" y="499" type="line"/>
      <point x="260" y="491" type="line"/>
    </contour>
    <contour>
      <point x="261" y="336" type="curve" smooth="yes"/>
      <point x="165" y="336"/>
      <point x="101" y="400"/>
      <point x="101" y="496" type="curve" smooth="yes"/>
      <point x="101" y="498" type="line" smooth="yes"/>
      <point x="101" y="594"/>
      <point x="165" y="657"/>
      <point x="261" y="657" type="curve" smooth="yes"/>
      <point x="357" y="657"/>
      <point x="421" y="594"/>
      <point x="421" y="498" type="curve" smooth="yes"/>
      <point x="421" y="496" type="line" smooth="yes"/>
      <point x="421" y="400"/>
      <point x="357" y="336"/>
    </contour>
    <contour>
      <point x="179" y="382" type="line"/>
      <point x="221" y="382" type="line"/>
      <point x="221" y="475" type="line"/>
      <point x="283" y="475" type="line" smooth="yes"/>
      <point x="325" y="475"/>
      <point x="352" y="501"/>
      <point x="352" y="542" type="curve" smooth="yes"/>
      <point x="352" y="584"/>
      <point x="325" y="611"/>
      <point x="283" y="611" type="curve" smooth="yes"/>
      <point x="179" y="611" type="line"/>
    </contour>
    <contour>
      <point x="279" y="508" type="curve" smooth="yes"/>
      <point x="220" y="508" type="line"/>
      <point x="220" y="574" type="line"/>
      <point x="279" y="574" type="line" smooth="yes"/>
      <point x="299" y="574"/>
      <point x="310" y="563"/>
      <point x="310" y="543" type="curve" smooth="yes"/>
      <point x="310" y="539" type="line" smooth="yes"/>
      <point x="310" y="519"/>
      <point x="299" y="508"/>
    </contour>
  </outline>
</glyph>
<glyph name="degree" format="1">
  <advance width="430"/>
  <unicode hex="00B0"/>
  <outline>
    <contour>
      <point x="214" y="371" type="curve" smooth="yes"/>
      <point x="322" y="371"/>
      <point x="389" y="434"/>
      <point x="389" y="535" type="curve" smooth="yes"/>
      <point x="389" y="636"/>
      <point x="322" y="699"/>
      <point x="214" y="699" type="curve" smooth="yes"/>
      <point x="108" y="699"/>
      <point x="41" y="636"/>
      <point x="41" y="535" type="curve" smooth="yes"/>
      <point x="41" y="434"/>
      <point x="108" y="371"/>
    </contour>
    <contour>
      <point x="214" y="418" type="curve" smooth="yes"/>
      <point x="134" y="418"/>
      <point x="95" y="456"/>
      <point x="95" y="534" type="curve" smooth="yes"/>
      <point x="95" y="536" type="line" smooth="yes"/>
      <point x="95" y="614"/>
      <point x="134" y="652"/>
      <point x="214" y="652" type="curve" smooth="yes"/>
      <point x="295" y="652"/>
      <point x="335" y="614"/>
      <point x="335" y="536" type="curve" smooth="yes"/>
      <point x="335" y="534" type="line" smooth="yes"/>
      <point x="335" y="456"/>
      <point x="295" y="418"/>
    </contour>
  </outline>
</glyph>
<glyph name="plusminus" format="1">
  <advance width="532"/>
  <unicode hex="00B1"/>
  <outline>
    <contour>
      <point x="44" y="361" type="line"/>
      <point x="488" y="361" type="line"/>
      <point x="488" y="413" type="line"/>
      <point x="44" y="413" type="line"/>
    </contour>
    <contour>
      <point x="238" y="173" type="line"/>
      <point x="294" y="173" type="line"/>
      <point x="294" y="601" type="line"/>
      <point x="238" y="601" type="line"/>
    </contour>
    <contour>
      <point x="44" y="0" type="line"/>
      <point x="488" y="0" type="line"/>
      <point x="488" y="52" type="line"/>
      <point x="44" y="52" type="line"/>
    </contour>
  </outline>
</glyph>
<glyph name="threesuperior" format="1">
  <advance width="432"/>
  <unicode hex="00B3"/>
  <note>
threesuperior
</note>
  <outline>
    <contour>
      <point x="218" y="363" type="curve" smooth="yes"/>
      <point x="320" y="363"/>
      <point x="385" y="399"/>
      <point x="385" y="457" type="curve" smooth="yes"/>
      <point x="385" y="494"/>
      <point x="358" y="520"/>
      <point x="311" y="524" type="curve"/>
      <point x="311" y="540" type="line"/>
      <point x="353" y="544"/>
      <point x="382" y="567"/>
      <point x="382" y="604" type="curve" smooth="yes"/>
      <point x="382" y="660"/>
      <point x="318" y="694"/>
      <point x="218" y="694" type="curve" smooth="yes"/>
      <point x="122" y="694"/>
      <point x="68" y="661"/>
      <point x="53" y="588" type="curve"/>
      <point x="113" y="588" type="line"/>
      <point x="113" y="589" type="line" smooth="yes"/>
      <point x="113" y="623"/>
      <point x="148" y="650"/>
      <point x="218" y="650" type="curve" smooth="yes"/>
      <point x="281" y="650"/>
      <point x="320" y="631"/>
      <point x="320" y="600" type="curve" smooth="yes"/>
      <point x="320" y="599" type="line" smooth="yes"/>
      <point x="320" y="568"/>
      <point x="297" y="552"/>
      <point x="253" y="552" type="curve" smooth="yes"/>
      <point x="153" y="552" type="line"/>
      <point x="153" y="512" type="line"/>
      <point x="253" y="512" type="line" smooth="yes"/>
      <point x="298" y="512"/>
      <point x="323" y="495"/>
      <point x="323" y="461" type="curve" smooth="yes"/>
      <point x="323" y="460" type="line" smooth="yes"/>
      <point x="323" y="428"/>
      <point x="282" y="408"/>
      <point x="218" y="408" type="curve" smooth="yes"/>
      <point x="148" y="408"/>
      <point x="111" y="434"/>
      <point x="111" y="469" type="curve" smooth="yes"/>
      <point x="111" y="470" type="line"/>
      <point x="51" y="470" type="line"/>
      <point x="66" y="396"/>
      <point x="120" y="363"/>
    </contour>
  </outline>
</glyph>
<glyph name="paragraph" format="1">
  <advance width="607"/>
  <unicode hex="00B6"/>
  <outline>
    <contour>
      <point x="435" y="0" type="line"/>
      <point x="493" y="0" type="line"/>
      <point x="493" y="690" type="line"/>
      <point x="265" y="690" type="line" smooth="yes"/>
      <point x="121" y="690"/>
      <point x="41" y="622"/>
      <point x="41" y="490" type="curve" smooth="yes"/>
      <point x="41" y="372"/>
      <point x="116" y="300"/>
      <point x="251" y="300" type="curve" smooth="yes"/>
      <point x="341" y="300" type="line"/>
      <point x="341" y="638" type="line"/>
      <point x="435" y="638" type="line"/>
    </contour>
  </outline>
</glyph>
<glyph name="onesuperior" format="1">
  <advance width="394"/>
  <unicode hex="00B9"/>
  <note>
onesuperior
</note>
  <outline>
    <contour>
      <point x="76" y="368" type="line"/>
      <point x="338" y="368" type="line"/>
      <point x="338" y="410" type="line"/>
      <point x="237" y="410" type="line"/>
      <point x="237" y="690" type="line"/>
      <point x="197" y="690" type="line"/>
      <point x="78" y="639" type="line"/>
      <point x="78" y="596" type="line"/>
      <point x="177" y="637" type="line"/>
      <point x="177" y="410" type="line"/>
      <point x="76" y="410" type="line"/>
    </contour>
  </outline>
</glyph>
<glyph name="ordmasculine" format="1">
  <advance width="501"/>
  <unicode hex="00BA"/>
  <note>
ordmasculine
</note>
  <outline>
    <contour>
      <point x="251" y="353" type="curve" smooth="yes"/>
      <point x="364" y="353"/>
      <point x="438" y="419"/>
      <point x="438" y="525" type="curve" smooth="yes"/>
      <point x="438" y="630"/>
      <point x="364" y="696"/>
      <point x="251" y="696" type="curve" smooth="yes"/>
      <point x="137" y="696"/>
      <point x="64" y="630"/>
      <point x="64" y="525" type="curve" smooth="yes"/>
      <point x="64" y="419"/>
      <point x="137" y="353"/>
    </contour>
    <contour>
      <point x="251" y="396" type="curve" smooth="yes"/>
      <point x="164" y="396"/>
      <point x="122" y="437"/>
      <point x="122" y="524" type="curve" smooth="yes"/>
      <point x="122" y="525" type="line" smooth="yes"/>
      <point x="122" y="612"/>
      <point x="164" y="653"/>
      <point x="251" y="653" type="curve" smooth="yes"/>
      <point x="338" y="653"/>
      <point x="380" y="612"/>
      <point x="380" y="525" type="curve" smooth="yes"/>
      <point x="380" y="524" type="line" smooth="yes"/>
      <point x="380" y="437"/>
      <point x="338" y="396"/>
    </contour>
    <contour>
      <point x="251" y="690" type="move" name="top"/>
    </contour>
  </outline>
</glyph>
<glyph name="questiondown" format="1">
  <advance width="638"/>
  <unicode hex="00BF"/>
  <outline>
    <contour>
      <point x="363" y="278" type="curve" smooth="yes"/>
      <point x="360" y="360" type="line"/>
      <point x="322" y="360" type="line"/>
      <point x="319" y="296" type="line" smooth="yes"/>
      <point x="317" y="256"/>
      <point x="292" y="231"/>
      <point x="236" y="217" type="curve" smooth="yes"/>
      <point x="109" y="186"/>
      <point x="57" y="123"/>
      <point x="57" y="28" type="curve" smooth="yes"/>
      <point x="57" y="28" type="line" smooth="yes"/>
      <point x="57" y="-92"/>
      <point x="155" y="-166"/>
      <point x="321" y="-166" type="curve" smooth="yes"/>
      <point x="480" y="-166"/>
      <point x="567" y="-95"/>
      <point x="590" y="55" type="curve"/>
      <point x="524" y="55" type="line"/>
      <point x="524" y="55" type="line" smooth="yes"/>
      <point x="524" y="-45"/>
      <point x="456" y="-109"/>
      <point x="321" y="-109" type="curve" smooth="yes"/>
      <point x="198" y="-109"/>
      <point x="122" y="-60"/>
      <point x="122" y="27" type="curve" smooth="yes"/>
      <point x="122" y="27" type="line" smooth="yes"/>
      <point x="122" y="91"/>
      <point x="161" y="138"/>
      <point x="262" y="162" type="curve" smooth="yes"/>
      <point x="332" y="179"/>
      <point x="365" y="217"/>
    </contour>
    <contour>
      <point x="384" y="534" type="line"/>
      <point x="298" y="534" type="line"/>
      <point x="298" y="452" type="line"/>
      <point x="384" y="452" type="line"/>
    </contour>
  </outline>
</glyph>
<glyph name="Eth" format="1">
  <advance width="842"/>
  <unicode hex="00D0"/>
  <note>
Eth
</note>
  <outline>
    <contour>
      <point x="26" y="326" type="line"/>
      <point x="446" y="326" type="line"/>
      <point x="446" y="378" type="line"/>
      <point x="26" y="378" type="line"/>
    </contour>
    <contour>
      <point x="138" y="0" type="line"/>
      <point x="422" y="0" type="line" smooth="yes"/>
      <point x="639" y="0"/>
      <point x="758" y="122"/>
      <point x="758" y="345" type="curve" smooth="yes"/>
      <point x="758" y="568"/>
      <point x="639" y="690"/>
      <point x="422" y="690" type="curve" smooth="yes"/>
      <point x="26" y="690" type="line"/>
      <point x="26" y="636" type="line"/>
      <point x="138" y="636" type="line"/>
    </contour>
    <contour>
      <point x="416" y="54" type="curve" smooth="yes"/>
      <point x="204" y="54" type="line"/>
      <point x="204" y="636" type="line"/>
      <point x="416" y="636" type="line" smooth="yes"/>
      <point x="599" y="636"/>
      <point x="688" y="546"/>
      <point x="688" y="346" type="curve" smooth="yes"/>
      <point x="688" y="344" type="line" smooth="yes"/>
      <point x="688" y="144"/>
      <point x="599" y="54"/>
    </contour>
  </outline>
</glyph>
<glyph name="germandbls" format="1">
  <advance width="709"/>
  <unicode hex="00DF"/>
  <note>
germandbls
</note>
  <outline>
    <contour>
      <point x="123" y="482" type="curve" smooth="yes"/>
      <point x="123" y="0" type="line"/>
      <point x="187" y="0" type="line"/>
      <point x="187" y="486" type="line" smooth="yes"/>
      <point x="187" y="589"/>
      <point x="251" y="644"/>
      <point x="372" y="644" type="curve" smooth="yes"/>
      <point x="485" y="644"/>
      <point x="545" y="597"/>
      <point x="545" y="510" type="curve" smooth="yes"/>
      <point x="545" y="508" type="line" smooth="yes"/>
      <point x="545" y="429"/>
      <point x="499" y="386"/>
      <point x="414" y="386" type="curve" smooth="yes"/>
      <point x="303" y="386" type="line"/>
      <point x="303" y="334" type="line"/>
      <point x="418" y="334" type="line" smooth="yes"/>
      <point x="523" y="334"/>
      <point x="579" y="285"/>
      <point x="579" y="194" type="curve" smooth="yes"/>
      <point x="579" y="192" type="line" smooth="yes"/>
      <point x="579" y="101"/>
      <point x="523" y="52"/>
      <point x="418" y="52" type="curve" smooth="yes"/>
      <point x="283" y="52" type="line"/>
      <point x="283" y="0" type="line"/>
      <point x="424" y="0" type="line" smooth="yes"/>
      <point x="560" y="0"/>
      <point x="645" y="74"/>
      <point x="645" y="193" type="curve" smooth="yes"/>
      <point x="645" y="281"/>
      <point x="593" y="335"/>
      <point x="497" y="348" type="curve"/>
      <point x="497" y="372" type="line"/>
      <point x="571" y="382"/>
      <point x="611" y="430"/>
      <point x="611" y="509" type="curve" smooth="yes"/>
      <point x="611" y="626"/>
      <point x="519" y="700"/>
      <point x="372" y="700" type="curve" smooth="yes"/>
      <point x="219" y="700"/>
      <point x="123" y="616"/>
    </contour>
    <contour>
      <point x="23" y="482" type="line"/>
      <point x="163" y="482" type="line"/>
      <point x="163" y="534" type="line"/>
      <point x="23" y="534" type="line"/>
    </contour>
  </outline>
</glyph>
<glyph name="ae" format="1">
  <advance width="1058"/>
  <unicode hex="00E6"/>
  <note>
ae
</note>
  <outline>
    <contour>
      <point x="267" y="-10" type="curve" smooth="yes"/>
      <point x="366" y="-10"/>
      <point x="438" y="21"/>
      <point x="483" y="108" type="curve"/>
      <point x="507" y="108" type="line"/>
      <point x="547" y="33"/>
      <point x="628" y="-10"/>
      <point x="733" y="-10" type="curve" smooth="yes"/>
      <point x="862" y="-10"/>
      <point x="952" y="53"/>
      <point x="983" y="161" type="curve"/>
      <point x="914" y="161" type="line"/>
      <point x="914" y="161" type="line"/>
      <point x="914" y="121"/>
      <point x="869" y="46"/>
      <point x="733" y="46" type="curve" smooth="yes"/>
      <point x="597" y="46"/>
      <point x="531" y="117"/>
      <point x="531" y="266" type="curve" smooth="yes"/>
      <point x="531" y="269" type="line" smooth="yes"/>
      <point x="531" y="418"/>
      <point x="597" y="489"/>
      <point x="733" y="489" type="curve" smooth="yes"/>
      <point x="869" y="489"/>
      <point x="935" y="418"/>
      <point x="935" y="269" type="curve" smooth="yes"/>
      <point x="935" y="266" type="line"/>
      <point x="966" y="308" type="line"/>
      <point x="506" y="308" type="line"/>
      <point x="506" y="260" type="line"/>
      <point x="995" y="260" type="line"/>
      <point x="995" y="287" type="line" smooth="yes"/>
      <point x="995" y="445"/>
      <point x="892" y="544"/>
      <point x="733" y="544" type="curve" smooth="yes"/>
      <point x="628" y="544"/>
      <point x="551" y="501"/>
      <point x="523" y="442" type="curve"/>
      <point x="499" y="442" type="line"/>
      <point x="481" y="504"/>
      <point x="417" y="544"/>
      <point x="312" y="544" type="curve" smooth="yes"/>
      <point x="182" y="544"/>
      <point x="101" y="483"/>
      <point x="79" y="373" type="curve"/>
      <point x="148" y="373" type="line"/>
      <point x="148" y="373" type="line"/>
      <point x="148" y="427"/>
      <point x="193" y="488"/>
      <point x="310" y="488" type="curve" smooth="yes"/>
      <point x="418" y="488"/>
      <point x="467" y="439"/>
      <point x="467" y="331" type="curve" smooth="yes"/>
      <point x="467" y="290" type="line"/>
      <point x="467" y="277" type="line"/>
      <point x="467" y="193" type="line" smooth="yes"/>
      <point x="467" y="97"/>
      <point x="404" y="46"/>
      <point x="282" y="46" type="curve" smooth="yes"/>
      <point x="181" y="46"/>
      <point x="129" y="80"/>
      <point x="129" y="144" type="curve" smooth="yes"/>
      <point x="129" y="144" type="line" smooth="yes"/>
      <point x="129" y="207"/>
      <point x="182" y="240"/>
      <point x="291" y="249" type="curve" smooth="yes"/>
      <point x="467" y="264" type="line"/>
      <point x="467" y="312" type="line"/>
      <point x="273" y="295" type="line" smooth="yes"/>
      <point x="139" y="283"/>
      <point x="63" y="228"/>
      <point x="63" y="136" type="curve" smooth="yes"/>
      <point x="63" y="44"/>
      <point x="139" y="-10"/>
    </contour>
    <contour>
      <point x="499" y="534" type="move" name="top"/>
    </contour>
  </outline>
</glyph>
<glyph name="eacute" format="1">
  <advance width="668"/>
  <unicode hex="00E9"/>
  <note>
eacute
</note>
  <outline>
    <component base="e"/>
    <component base="acutecomb" xOffset="139"/>
    <contour>
      <point x="424" y="0" type="move" name="ogonek"/>
    </contour>
    <contour>
      <point x="339" y="534" type="move" name="top"/>
    </contour>
  </outline>
</glyph>
<glyph name="icircumflex" format="1">
  <advance width="313"/>
  <unicode hex="00EE"/>
  <note>
icircumflex
</note>
  <outline>
    <component base="idotless"/>
    <component base="circumflexcomb" xOffset="-28"/>
    <contour>
      <point x="172" y="534" type="move" name="top"/>
    </contour>
  </outline>
</glyph>
<glyph name="idieresis" format="1">
  <advance width="313"/>
  <unicode hex="00EF"/>
  <outline>
    <component base="idotless"/>
    <component base="dieresiscomb.narrow" xOffset="-28"/>
    <contour>
      <point x="172" y="534" type="move" name="top"/>
    </contour>
  </outline>
</glyph>
<glyph name="otilde" format="1">
  <advance width="684"/>
  <unicode hex="00F5"/>
  <note>
otilde
</note>
  <outline>
    <component base="o"/>
    <component base="tildecomb" xOffset="142"/>
    <contour>
      <point x="342" y="534" type="move" name="top"/>
    </contour>
  </outline>
</glyph>
<glyph name="ucircumflex" format="1">
  <advance width="706"/>
  <unicode hex="00FB"/>
  <note>
ucircumflex
</note>
  <outline>
    <component base="u"/>
    <component base="circumflexcomb" xOffset="151"/>
    <contour>
      <point x="351" y="534" type="move" name="top"/>
    </contour>
  </outline>
</glyph>
<glyph name="thorn" format="1">
  <advance width="700"/>
  <unicode hex="00FE"/>
  <note>
thorn
</note>
  <outline>
    <contour>
      <point x="104" y="-132" type="line"/>
      <point x="168" y="-132" type="line"/>
      <point x="168" y="-26" type="line" smooth="yes"/>
      <point x="168" y="5"/>
      <point x="165" y="37"/>
      <point x="158" y="100" type="curve"/>
      <point x="182" y="100" type="line"/>
      <point x="228" y="24"/>
      <point x="289" y="-10"/>
      <point x="379" y="-10" type="curve" smooth="yes"/>
      <point x="537" y="-10"/>
      <point x="636" y="97"/>
      <point x="636" y="267" type="curve" smooth="yes"/>
      <point x="636" y="437"/>
      <point x="537" y="544"/>
      <point x="379" y="544" type="curve" smooth="yes"/>
      <point x="289" y="544"/>
      <point x="228" y="510"/>
      <point x="182" y="434" type="curve"/>
      <point x="158" y="434" type="line"/>
      <point x="165" y="497"/>
      <point x="168" y="529"/>
      <point x="168" y="560" type="curve" smooth="yes"/>
      <point x="168" y="690" type="line"/>
      <point x="8" y="690" type="line"/>
      <point x="8" y="638" type="line"/>
      <point x="104" y="638" type="line"/>
    </contour>
    <contour>
      <point x="368" y="46" type="curve" smooth="yes"/>
      <point x="232" y="46"/>
      <point x="168" y="117"/>
      <point x="168" y="266" type="curve" smooth="yes"/>
      <point x="168" y="268" type="line" smooth="yes"/>
      <point x="168" y="417"/>
      <point x="232" y="488"/>
      <point x="368" y="488" type="curve" smooth="yes"/>
      <point x="504" y="488"/>
      <point x="568" y="417"/>
      <point x="568" y="268" type="curve" smooth="yes"/>
      <point x="568" y="266" type="line" smooth="yes"/>
      <point x="568" y="117"/>
      <point x="504" y="46"/>
    </contour>
  </outline>
</glyph>
<glyph name="eogonek" format="1">
  <advance width="668"/>
  <unicode hex="0119"/>
  <outline>
    <contour>
      <point x="339" y="-10" type="curve" smooth="yes"/>
      <point x="471" y="-10"/>
      <point x="562" y="53"/>
      <point x="593" y="161" type="curve"/>
      <point x="524" y="161" type="line"/>
      <point x="524" y="161" type="line"/>
      <point x="524" y="121"/>
      <point x="479" y="46"/>
      <point x="339" y="46" type="curve" smooth="yes"/>
      <point x="199" y="46"/>
      <point x="133" y="117"/>
      <point x="133" y="266" type="curve" smooth="yes"/>
      <point x="133" y="269" type="line" smooth="yes"/>
      <point x="133" y="418"/>
      <point x="199" y="489"/>
      <point x="339" y="489" type="curve" smooth="yes"/>
      <point x="479" y="489"/>
      <point x="545" y="418"/>
      <point x="545" y="269" type="curve" smooth="yes"/>
      <point x="545" y="266" type="line"/>
      <point x="576" y="308" type="line"/>
      <point x="108" y="308" type="line"/>
      <point x="108" y="260" type="line"/>
      <point x="605" y="260" type="line"/>
      <point x="605" y="287" type="line" smooth="yes"/>
      <point x="605" y="445"/>
      <point x="502" y="544"/>
      <point x="339" y="544" type="curve" smooth="yes"/>
      <point x="171" y="544"/>
      <point x="65" y="437"/>
      <point x="65" y="267" type="curve" smooth="yes"/>
      <point x="65" y="97"/>
      <point x="171" y="-10"/>
    </contour>
    <contour>
      <point x="416" y="-148" type="curve" smooth="yes"/>
      <point x="533" y="-148" type="line"/>
      <point x="533" y="-104" type="line"/>
      <point x="423" y="-104" type="line" smooth="yes"/>
      <point x="403" y="-104"/>
      <point x="393" y="-96"/>
      <point x="393" y="-80" type="curve" smooth="yes"/>
      <point x="393" y="-56"/>
      <point x="424" y="-24"/>
      <point x="505" y="36" type="curve"/>
      <point x="404" y="11" type="line"/>
      <point x="404" y="-22" type="line"/>
      <point x="363" y="-39"/>
      <point x="345" y="-56"/>
      <point x="345" y="-92" type="curve" smooth="yes"/>
      <point x="345" y="-128"/>
      <point x="370" y="-148"/>
    </contour>
    <contour>
      <point x="424" y="0" type="move" name="ogonek"/>
    </contour>
    <contour>
      <point x="339" y="534" type="move" name="top"/>
    </contour>
  </outline>
</glyph>
<glyph name="idotless" format="1">
  <advance width="313"/>
  <unicode hex="0131"/>
  <outline>
    <contour>
      <point x="142" y="0" type="line"/>
      <point x="206" y="0" type="line"/>
      <point x="206" y="534" type="line"/>
      <point x="28" y="534" type="line"/>
      <point x="28" y="482" type="line"/>
      <point x="142" y="482" type="line"/>
    </contour>
    <contour>
      <point x="172" y="534" type="move" name="top"/>
    </contour>
  </outline>
</glyph>
<glyph name="IJ" format="1">
  <advance width="838"/>
  <unicode hex="0132"/>
  <outline>
    <contour>
      <point x="446" y="-10" type="curve" smooth="yes"/>
      <point x="645" y="-10"/>
      <point x="736" y="91"/>
      <point x="736" y="280" type="curve" smooth="yes"/>
      <point x="736" y="690" type="line"/>
      <point x="670" y="690" type="line"/>
      <point x="670" y="280" type="line" smooth="yes"/>
      <point x="670" y="120"/>
      <point x="610" y="48"/>
      <point x="446" y="48" type="curve" smooth="yes"/>
      <point x="292" y="48"/>
      <point x="222" y="120"/>
      <point x="222" y="273" type="curve" smooth="yes"/>
      <point x="222" y="277" type="line"/>
      <point x="156" y="277" type="line"/>
      <point x="156" y="273" type="line" smooth="yes"/>
      <point x="156" y="91"/>
      <point x="257" y="-10"/>
    </contour>
    <contour>
      <point x="51" y="333" type="line"/>
      <point x="327" y="333" type="line"/>
      <point x="327" y="385" type="line"/>
      <point x="220" y="385" type="line"/>
      <point x="220" y="636" type="line"/>
      <point x="327" y="636" type="line"/>
      <point x="327" y="690" type="line"/>
      <point x="51" y="690" type="line"/>
      <point x="51" y="636" type="line"/>
      <point x="158" y="636" type="line"/>
      <point x="158" y="385" type="line"/>
      <point x="51" y="385" type="line"/>
    </contour>
    <contour>
      <point x="452" y="636" type="line"/>
      <point x="698" y="636" type="line"/>
      <point x="698" y="690" type="line"/>
      <point x="452" y="690" type="line"/>
    </contour>
  </outline>
</glyph>
<glyph name="oe" format="1">
  <advance width="1140"/>
  <unicode hex="0153"/>
  <note>
oe
</note>
  <outline>
    <contour>
      <point x="339" y="-10" type="curve" smooth="yes"/>
      <point x="455" y="-10"/>
      <point x="531" y="41"/>
      <point x="567" y="108" type="curve"/>
      <point x="591" y="108" type="line"/>
      <point x="627" y="41"/>
      <point x="699" y="-10"/>
      <point x="815" y="-10" type="curve" smooth="yes"/>
      <point x="944" y="-10"/>
      <point x="1034" y="53"/>
      <point x="1065" y="161" type="curve"/>
      <point x="996" y="161" type="line"/>
      <point x="996" y="161" type="line"/>
      <point x="996" y="121"/>
      <point x="951" y="46"/>
      <point x="815" y="46" type="curve" smooth="yes"/>
      <point x="679" y="46"/>
      <point x="613" y="117"/>
      <point x="613" y="266" type="curve" smooth="yes"/>
      <point x="613" y="269" type="line" smooth="yes"/>
      <point x="613" y="418"/>
      <point x="679" y="489"/>
      <point x="815" y="489" type="curve" smooth="yes"/>
      <point x="951" y="489"/>
      <point x="1017" y="418"/>
      <point x="1017" y="269" type="curve" smooth="yes"/>
      <point x="1017" y="266" type="line"/>
      <point x="1060" y="308" type="line"/>
      <point x="588" y="308" type="line"/>
      <point x="588" y="260" type="line"/>
      <point x="1077" y="260" type="line"/>
      <point x="1077" y="287" type="line" smooth="yes"/>
      <point x="1077" y="445"/>
      <point x="974" y="544"/>
      <point x="815" y="544" type="curve" smooth="yes"/>
      <point x="701" y="544"/>
      <point x="627" y="493"/>
      <point x="591" y="426" type="curve"/>
      <point x="567" y="426" type="line"/>
      <point x="531" y="493"/>
      <point x="455" y="544"/>
      <point x="339" y="544" type="curve" smooth="yes"/>
      <point x="171" y="544"/>
      <point x="65" y="437"/>
      <point x="65" y="267" type="curve" smooth="yes"/>
      <point x="65" y="97"/>
      <point x="171" y="-10"/>
    </contour>
    <contour>
      <point x="339" y="46" type="curve" smooth="yes"/>
      <point x="199" y="46"/>
      <point x="133" y="117"/>
      <point x="133" y="266" type="curve" smooth="yes"/>
      <point x="133" y="268" type="line" smooth="yes"/>
      <point x="133" y="417"/>
      <point x="199" y="488"/>
      <point x="339" y="488" type="curve" smooth="yes"/>
      <point x="479" y="488"/>
      <point x="545" y="417"/>
      <point x="545" y="268" type="curve" smooth="yes"/>
      <point x="545" y="266" type="line" smooth="yes"/>
      <point x="545" y="117"/>
      <point x="479" y="46"/>
    </contour>
  </outline>
</glyph>
<glyph name="zcaron" format="1">
  <advance width="578"/>
  <unicode hex="017E"/>
  <note>
zcaron
</note>
  <outline>
    <component base="z"/>
    <component base="caroncomb" xOffset="89"/>
    <contour>
      <point x="289" y="534" type="move" name="top"/>
    </contour>
  </outline>
</glyph>
<glyph name="breve" format="1">
  <advance width="400"/>
  <unicode hex="02D8"/>
  <outline>
    <contour>
      <point x="200" y="574" type="curve" smooth="yes"/>
      <point x="292" y="574"/>
      <point x="346" y="620"/>
      <point x="356" y="706" type="curve"/>
      <point x="300" y="706" type="line"/>
      <point x="300" y="706" type="line"/>
      <point x="300" y="652"/>
      <point x="263" y="620"/>
      <point x="200" y="620" type="curve" smooth="yes"/>
      <point x="137" y="620"/>
      <point x="100" y="652"/>
      <point x="100" y="706" type="curve"/>
      <point x="100" y="706" type="line"/>
      <point x="44" y="706" type="line"/>
      <point x="54" y="620"/>
      <point x="108" y="574"/>
    </contour>
    <contour>
      <point x="200" y="534" type="move" name="_top"/>
    </contour>
  </outline>
</glyph>
<glyph name="hungarumlaut" format="1">
  <advance width="400"/>
  <unicode hex="02DD"/>
  <outline>
    <component base="acutecomb" xOffset="-70"/>
    <component base="acutecomb" xOffset="70"/>
    <contour>
      <point x="130" y="534" type="move" name="_top"/>
    </contour>
  </outline>
</glyph>
<glyph name="gravecomb" format="1">
  <advance width="0"/>
  <unicode hex="0300"/>
  <note>
grave
</note>
  <outline>
    <contour>
      <point x="192" y="578" type="line"/>
      <point x="240" y="578" type="line"/>
      <point x="170" y="706" type="line"/>
      <point x="98" y="706" type="line"/>
    </contour>
    <contour>
      <point x="200" y="534" type="move" name="_top"/>
    </contour>
  </outline>
</glyph>
<glyph name="tildecomb" format="1">
  <advance width="0"/>
  <unicode hex="0303"/>
  <note>
tilde
</note>
  <outline>
    <contour>
      <point x="268" y="578" type="curve" smooth="yes"/>
      <point x="320" y="578"/>
      <point x="352" y="611"/>
      <point x="352" y="664" type="curve" smooth="yes"/>
      <point x="352" y="698" type="line"/>
      <point x="308" y="698" type="line"/>
      <point x="308" y="666" type="line" smooth="yes"/>
      <point x="308" y="639"/>
      <point x="294" y="624"/>
      <point x="268" y="624" type="curve" smooth="yes"/>
      <point x="212" y="624"/>
      <point x="211" y="702"/>
      <point x="132" y="702" type="curve" smooth="yes"/>
      <point x="80" y="702"/>
      <point x="48" y="669"/>
      <point x="48" y="616" type="curve" smooth="yes"/>
      <point x="48" y="582" type="line"/>
      <point x="92" y="582" type="line"/>
      <point x="92" y="614" type="line" smooth="yes"/>
      <point x="92" y="641"/>
      <point x="106" y="656"/>
      <point x="132" y="656" type="curve" smooth="yes"/>
      <point x="188" y="656"/>
      <point x="189" y="578"/>
    </contour>
    <contour>
      <point x="200" y="534" type="move" name="_top"/>
    </contour>
  </outline>
</glyph>
<glyph name="ringcomb" format="1">
  <advance width="0"/>
  <unicode hex="030A"/>
  <note>
ring
</note>
  <outline>
    <contour>
      <point x="200" y="570" type="curve" smooth="yes"/>
      <point x="259" y="570"/>
      <point x="299" y="607"/>
      <point x="299" y="663" type="curve" smooth="yes"/>
      <point x="299" y="719"/>
      <point x="259" y="756"/>
      <point x="200" y="756" type="curve" smooth="yes"/>
      <point x="141" y="756"/>
      <point x="101" y="719"/>
      <point x="101" y="663" type="curve" smooth="yes"/>
      <point x="101" y="607"/>
      <point x="141" y="570"/>
    </contour>
    <contour>
      <point x="200" y="610" type="curve" smooth="yes"/>
      <point x="167" y="610"/>
      <point x="149" y="628"/>
      <point x="149" y="662" type="curve" smooth="yes"/>
      <point x="149" y="664" type="line" smooth="yes"/>
      <point x="149" y="698"/>
      <point x="167" y="716"/>
      <point x="200" y="716" type="curve" smooth="yes"/>
      <point x="233" y="716"/>
      <point x="251" y="698"/>
      <point x="251" y="664" type="curve" smooth="yes"/>
      <point x="251" y="662" type="line" smooth="yes"/>
      <point x="251" y="628"/>
      <point x="233" y="610"/>
    </contour>
    <contour>
      <point x="200" y="534" type="move" name="_top"/>
    </contour>
  </outline>
</glyph>
<glyph name="caroncomb" format="1">
  <advance width="0"/>
  <unicode hex="030C"/>
  <outline>
    <contour>
      <point x="360" y="706" type="line"/>
      <point x="304" y="706" type="line"/>
      <point x="212" y="624" type="line"/>
      <point x="188" y="624" type="line"/>
      <point x="96" y="706" type="line"/>
      <point x="40" y="706" type="line"/>
      <point x="152" y="578" type="line"/>
      <point x="248" y="578" type="line"/>
    </contour>
    <contour>
      <point x="200" y="534" type="move" name="_top"/>
    </contour>
  </outline>
</glyph>
<glyph name="pi" format="1">
  <advance width="771"/>
  <unicode hex="03C0"/>
  <outline>
    <contour>
      <point x="583" y="0" type="curve" smooth="yes"/>
      <point x="719" y="0" type="line"/>
      <point x="719" y="52" type="line"/>
      <point x="599" y="52" type="line"/>
      <point x="599" y="514" type="line"/>
      <point x="535" y="514" type="line"/>
      <point x="535" y="48" type="line" smooth="yes"/>
      <point x="535" y="17"/>
      <point x="552" y="0"/>
    </contour>
    <contour>
      <point x="151" y="0" type="line"/>
      <point x="215" y="0" type="line"/>
      <point x="215" y="514" type="line"/>
      <point x="151" y="514" type="line"/>
    </contour>
    <contour>
      <point x="31" y="482" type="line"/>
      <point x="719" y="482" type="line"/>
      <point x="719" y="534" type="line"/>
      <point x="31" y="534" type="line"/>
    </contour>
  </outline>
</glyph>
<glyph name="Germandbls" format="1">
  <advance width="794"/>
  <unicode hex="1E9E"/>
  <outline>
    <contour>
      <point x="154" y="0" type="line"/>
      <point x="220" y="0" type="line"/>
      <point x="220" y="636" type="line"/>
      <point x="614" y="636" type="line"/>
      <point x="390" y="394" type="line"/>
      <point x="390" y="342" type="line"/>
      <point x="495" y="342" type="line" smooth="yes"/>
      <point x="600" y="342"/>
      <point x="656" y="292"/>
      <point x="656" y="199" type="curve" smooth="yes"/>
      <point x="656" y="197" type="line" smooth="yes"/>
      <point x="656" y="104"/>
      <point x="600" y="54"/>
      <point x="495" y="54" type="curve" smooth="yes"/>
      <point x="326" y="54" type="line"/>
      <point x="326" y="0" type="line"/>
      <point x="501" y="0" type="line" smooth="yes"/>
      <point x="638" y="0"/>
      <point x="724" y="76"/>
      <point x="724" y="198" type="curve" smooth="yes"/>
      <point x="724" y="318"/>
      <point x="638" y="394"/>
      <point x="501" y="394" type="curve" smooth="yes"/>
      <point x="427" y="394" type="line"/>
      <point x="453" y="369" type="line"/>
      <point x="700" y="636" type="line"/>
      <point x="700" y="690" type="line"/>
      <point x="42" y="690" type="line"/>
      <point x="42" y="636" type="line"/>
      <point x="154" y="636" type="line"/>
    </contour>
  </outline>
</glyph>
<glyph name="daggerdbl" format="1">
  <advance width="541"/>
  <unicode hex="2021"/>
  <outline>
    <contour>
      <point x="72" y="460" type="line"/>
      <point x="468" y="460" type="line"/>
      <point x="468" y="516" type="line"/>
      <point x="376" y="516" type="line"/>
      <point x="295" y="493" type="line"/>
      <point x="289" y="498" type="line"/>
      <point x="301" y="592" type="line"/>
      <point x="301" y="690" type="line"/>
      <point x="239" y="690" type="line"/>
      <point x="239" y="592" type="line"/>
      <point x="251" y="498" type="line"/>
      <point x="245" y="493" type="line"/>
      <point x="164" y="516" type="line"/>
      <point x="72" y="516" type="line"/>
    </contour>
    <contour>
      <point x="239" y="0" type="line"/>
      <point x="301" y="0" type="line"/>
      <point x="301" y="98" type="line"/>
      <point x="289" y="192" type="line"/>
      <point x="295" y="197" type="line"/>
      <point x="376" y="174" type="line"/>
      <point x="468" y="174" type="line"/>
      <point x="468" y="230" type="line"/>
      <point x="72" y="230" type="line"/>
      <point x="72" y="174" type="line"/>
      <point x="164" y="174" type="line"/>
      <point x="245" y="197" type="line"/>
      <point x="251" y="192" type="line"/>
      <point x="239" y="98" type="line"/>
    </contour>
    <contour>
      <point x="233" y="308" type="line"/>
      <point x="307" y="308" type="line"/>
      <point x="307" y="382" type="line"/>
      <point x="233" y="382" type="line"/>
    </contour>
  </outline>
</glyph>
<glyph name="guilsinglright" format="1">
  <advance width="393"/>
  <unicode hex="203A"/>
  <outline>
    <contour>
      <point x="140" y="486" type="line"/>
      <point x="66" y="486" type="line"/>
      <point x="270" y="290" type="line"/>
      <point x="270" y="278" type="line"/>
      <point x="66" y="82" type="line"/>
      <point x="140" y="82" type="line"/>
      <point x="336" y="262" type="line"/>
      <point x="336" y="306" type="line"/>
    </contour>
  </outline>
</glyph>
<glyph name="fraction" format="1">
  <advance width="40"/>
  <unicode hex="2044"/>
  <note>
fraction
</note>
  <outline>
    <contour>
      <point x="-267" y="0" type="line"/>
      <point x="-201" y="0" type="line"/>
      <point x="5" y="322" type="line"/>
      <point x="-61" y="322" type="line"/>
    </contour>
    <contour>
      <point x="35" y="368" type="line"/>
      <point x="101" y="368" type="line"/>
      <point x="307" y="690" type="line"/>
      <point x="241" y="690" type="line"/>
    </contour>
  </outline>
</glyph>
<glyph name="euro" format="1">
  <advance width="848"/>
  <unicode hex="20AC"/>
  <outline>
    <contour>
      <point x="476" y="-10" type="curve" smooth="yes"/>
      <point x="636" y="-10"/>
      <point x="753" y="76"/>
      <point x="790" y="221" type="curve"/>
      <point x="721" y="221" type="line"/>
      <point x="721" y="221" type="line"/>
      <point x="721" y="154"/>
      <point x="648" y="48"/>
      <point x="476" y="48" type="curve" smooth="yes"/>
      <point x="307" y="48"/>
      <point x="216" y="144"/>
      <point x="216" y="344" type="curve" smooth="yes"/>
      <point x="216" y="346" type="line" smooth="yes"/>
      <point x="216" y="546"/>
      <point x="307" y="642"/>
      <point x="476" y="642" type="curve" smooth="yes"/>
      <point x="644" y="642"/>
      <point x="721" y="539"/>
      <point x="721" y="483" type="curve"/>
      <point x="721" y="483" type="line"/>
      <point x="786" y="483" type="line"/>
      <point x="745" y="620"/>
      <point x="631" y="700"/>
      <point x="476" y="700" type="curve" smooth="yes"/>
      <point x="280" y="700"/>
      <point x="146" y="564"/>
      <point x="146" y="345" type="curve" smooth="yes"/>
      <point x="146" y="126"/>
      <point x="280" y="-10"/>
    </contour>
    <contour>
      <point x="62" y="264" type="line"/>
      <point x="562" y="264" type="line"/>
      <point x="562" y="314" type="line"/>
      <point x="62" y="314" type="line"/>
    </contour>
    <contour>
      <point x="62" y="390" type="line"/>
      <point x="562" y="390" type="line"/>
      <point x="562" y="440" type="line"/>
      <point x="62" y="440" type="line"/>
    </contour>
  </outline>
</glyph>
<glyph name="literSign" format="1">
  <advance width="684"/>
  <unicode hex="2113"/>
  <outline>
    <contour>
      <point x="391" y="-10" type="curve" smooth="yes"/>
      <point x="509" y="-10"/>
      <point x="591" y="53"/>
      <point x="618" y="161" type="curve"/>
      <point x="549" y="161" type="line"/>
      <point x="549" y="161" type="line"/>
      <point x="549" y="121"/>
      <point x="511" y="46"/>
      <point x="391" y="46" type="curve" smooth="yes"/>
      <point x="271" y="46"/>
      <point x="226" y="119"/>
      <point x="226" y="313" type="curve" smooth="yes"/>
      <point x="226" y="377" type="line" smooth="yes"/>
      <point x="226" y="571"/>
      <point x="275" y="644"/>
      <point x="403" y="644" type="curve" smooth="yes"/>
      <point x="508" y="644"/>
      <point x="564" y="594"/>
      <point x="564" y="510" type="curve" smooth="yes"/>
      <point x="564" y="508" type="line" smooth="yes"/>
      <point x="564" y="426"/>
      <point x="525" y="385"/>
      <point x="399" y="337" type="curve" smooth="yes"/>
      <point x="44" y="202" type="line"/>
      <point x="44" y="145" type="line"/>
      <point x="429" y="294" type="line" smooth="yes"/>
      <point x="575" y="351"/>
      <point x="630" y="410"/>
      <point x="630" y="508" type="curve" smooth="yes"/>
      <point x="630" y="622"/>
      <point x="542" y="700"/>
      <point x="403" y="700" type="curve" smooth="yes"/>
      <point x="234" y="700"/>
      <point x="158" y="589"/>
      <point x="158" y="345" type="curve" smooth="yes"/>
      <point x="158" y="101"/>
      <point x="231" y="-10"/>
    </contour>
  </outline>
</glyph>
<glyph name="estimated" format="1">
  <advance width="900"/>
  <unicode hex="212E"/>
  <outline>
    <contour>
      <point x="453" y="679" type="curve" smooth="yes"/>
      <point x="538" y="679"/>
      <point x="620" y="646"/>
      <point x="683" y="587" type="curve" smooth="yes"/>
      <point x="696" y="575"/>
      <point x="703" y="557"/>
      <point x="703" y="539" type="curve" smooth="yes"/>
      <point x="703" y="365" type="line" smooth="yes"/>
      <point x="703" y="359"/>
      <point x="698" y="355"/>
      <point x="693" y="355" type="curve" smooth="yes"/>
      <point x="213" y="355" type="line" smooth="yes"/>
      <point x="208" y="355"/>
      <point x="203" y="359"/>
      <point x="203" y="365" type="curve" smooth="yes"/>
      <point x="203" y="539" type="line" smooth="yes"/>
      <point x="203" y="557"/>
      <point x="210" y="575"/>
      <point x="223" y="587" type="curve" smooth="yes"/>
      <point x="286" y="646"/>
      <point x="368" y="679"/>
    </contour>
    <contour>
      <point x="453" y="700" type="curve" smooth="yes"/>
      <point x="235" y="700"/>
      <point x="58" y="542"/>
      <point x="58" y="345" type="curve" smooth="yes"/>
      <point x="58" y="149"/>
      <point x="235" y="-10"/>
      <point x="453" y="-10" type="curve" smooth="yes"/>
      <point x="575" y="-10"/>
      <point x="690" y="40"/>
      <point x="765" y="127" type="curve"/>
      <point x="705" y="127" type="line"/>
      <point x="642" y="54"/>
      <point x="550" y="11"/>
      <point x="453" y="11" type="curve" smooth="yes"/>
      <point x="368" y="11"/>
      <point x="286" y="44"/>
      <point x="223" y="103" type="curve" smooth="yes"/>
      <point x="210" y="115"/>
      <point x="203" y="133"/>
      <point x="203" y="151" type="curve" smooth="yes"/>
      <point x="203" y="325" type="line" smooth="yes"/>
      <point x="203" y="330"/>
      <point x="208" y="335"/>
      <point x="213" y="335" type="curve" smooth="yes"/>
      <point x="848" y="335" type="line"/>
      <point x="848" y="345" type="line" smooth="yes"/>
      <point x="848" y="542"/>
      <point x="671" y="700"/>
    </contour>
  </outline>
</glyph>
<glyph name="product" format="1">
  <advance width="868"/>
  <unicode hex="220F"/>
  <outline>
    <contour>
      <point x="638" y="0" type="line"/>
      <point x="704" y="0" type="line"/>
      <point x="704" y="636" type="line"/>
      <point x="832" y="636" type="line"/>
      <point x="832" y="690" type="line"/>
      <point x="36" y="690" type="line"/>
      <point x="36" y="636" type="line"/>
      <point x="164" y="636" type="line"/>
      <point x="164" y="0" type="line"/>
      <point x="230" y="0" type="line"/>
      <point x="230" y="636" type="line"/>
      <point x="638" y="636" type="line"/>
    </contour>
  </outline>
</glyph>
<glyph name="minus" format="1">
  <advance width="532"/>
  <unicode hex="2212"/>
  <outline>
    <contour>
      <point x="44" y="311" type="line"/>
      <point x="488" y="311" type="line"/>
      <point x="488" y="363" type="line"/>
      <point x="44" y="363" type="line"/>
    </contour>
  </outline>
</glyph>
<glyph name="infinity" format="1">
  <advance width="746"/>
  <unicode hex="221E"/>
  <outline>
    <contour>
      <point x="209" y="202" type="curve" smooth="yes"/>
      <point x="273" y="202"/>
      <point x="326" y="235"/>
      <point x="361" y="297" type="curve"/>
      <point x="385" y="297" type="line"/>
      <point x="420" y="235"/>
      <point x="473" y="202"/>
      <point x="537" y="202" type="curve" smooth="yes"/>
      <point x="620" y="202"/>
      <point x="672" y="254"/>
      <point x="672" y="337" type="curve" smooth="yes"/>
      <point x="672" y="420"/>
      <point x="620" y="472"/>
      <point x="537" y="472" type="curve" smooth="yes"/>
      <point x="473" y="472"/>
      <point x="420" y="439"/>
      <point x="385" y="377" type="curve"/>
      <point x="361" y="377" type="line"/>
      <point x="326" y="439"/>
      <point x="273" y="472"/>
      <point x="209" y="472" type="curve" smooth="yes"/>
      <point x="126" y="472"/>
      <point x="74" y="420"/>
      <point x="74" y="337" type="curve" smooth="yes"/>
      <point x="74" y="254"/>
      <point x="126" y="202"/>
    </contour>
    <contour>
      <point x="213" y="258" type="curve" smooth="yes"/>
      <point x="162" y="258"/>
      <point x="134" y="285"/>
      <point x="134" y="336" type="curve" smooth="yes"/>
      <point x="134" y="338" type="line" smooth="yes"/>
      <point x="134" y="389"/>
      <point x="162" y="416"/>
      <point x="213" y="416" type="curve" smooth="yes"/>
      <point x="266" y="416"/>
      <point x="313" y="388"/>
      <point x="349" y="337" type="curve"/>
      <point x="313" y="286"/>
      <point x="266" y="258"/>
    </contour>
    <contour>
      <point x="533" y="258" type="curve" smooth="yes"/>
      <point x="480" y="258"/>
      <point x="433" y="286"/>
      <point x="397" y="337" type="curve"/>
      <point x="433" y="388"/>
      <point x="480" y="416"/>
      <point x="533" y="416" type="curve" smooth="yes"/>
      <point x="584" y="416"/>
      <point x="612" y="389"/>
      <point x="612" y="338" type="curve" smooth="yes"/>
      <point x="612" y="336" type="line" smooth="yes"/>
      <point x="612" y="285"/>
      <point x="584" y="258"/>
    </contour>
  </outline>
</glyph>
<glyph name="greaterequal" format="1">
  <advance width="532"/>
  <unicode hex="2265"/>
  <outline>
    <contour>
      <point x="48" y="169" type="line"/>
      <point x="492" y="347" type="line"/>
      <point x="492" y="427" type="line"/>
      <point x="48" y="605" type="line"/>
      <point x="48" y="548" type="line"/>
      <point x="434" y="399" type="line"/>
      <point x="434" y="375" type="line"/>
      <point x="48" y="226" type="line"/>
    </contour>
    <contour>
      <point x="48" y="0" type="line"/>
      <point x="492" y="0" type="line"/>
      <point x="492" y="52" type="line"/>
      <point x="48" y="52" type="line"/>
    </contour>
  </outline>
</glyph>
<glyph name="B.ss03" format="1">
  <advance width="738"/>
  <outline>
    <contour>
      <point x="121" y="0" type="line"/>
      <point x="464" y="0" type="line" smooth="yes"/>
      <point x="586" y="0"/>
      <point x="663" y="73"/>
      <point x="663" y="190" type="curve" smooth="yes"/>
      <point x="663" y="277"/>
      <point x="619" y="329"/>
      <point x="537" y="340" type="curve"/>
      <point x="537" y="364" type="line"/>
      <point x="614" y="375"/>
      <point x="655" y="425"/>
      <point x="655" y="507" type="curve" smooth="yes"/>
      <point x="655" y="619"/>
      <point x="581" y="690"/>
      <point x="462" y="690" type="curve"/>
      <point x="121" y="690" type="line"/>
    </contour>
    <contour>
      <point x="458" y="54" type="curve" smooth="yes"/>
      <point x="187" y="54" type="line"/>
      <point x="187" y="326" type="line"/>
      <point x="458" y="326" type="line" smooth="yes"/>
      <point x="547" y="326"/>
      <point x="595" y="279"/>
      <point x="595" y="191" type="curve" smooth="yes"/>
      <point x="595" y="189" type="line" smooth="yes"/>
      <point x="595" y="101"/>
      <point x="547" y="54"/>
    </contour>
    <contour>
      <point x="456" y="378" type="curve" smooth="yes"/>
      <point x="187" y="378" type="line"/>
      <point x="187" y="636" type="line"/>
      <point x="456" y="636" type="line" smooth="yes"/>
      <point x="541" y="636"/>
      <point x="587" y="591"/>
      <point x="587" y="508" type="curve" smooth="yes"/>
      <point x="587" y="506" type="line" smooth="yes"/>
      <point x="587" y="423"/>
      <point x="541" y="378"/>
    </contour>
  </outline>
</glyph>
<glyph name="D.ss03" format="1">
  <advance width="810"/>
  <outline>
    <contour>
      <point x="120" y="0" type="line"/>
      <point x="404" y="0" type="line" smooth="yes"/>
      <point x="621" y="0"/>
      <point x="740" y="122"/>
      <point x="740" y="345" type="curve" smooth="yes"/>
      <point x="740" y="568"/>
      <point x="621" y="690"/>
      <point x="404" y="690" type="curve" smooth="yes"/>
      <point x="120" y="690" type="line"/>
    </contour>
    <contour>
      <point x="398" y="54" type="curve" smooth="yes"/>
      <point x="186" y="54" type="line"/>
      <point x="186" y="636" type="line"/>
      <point x="398" y="636" type="line" smooth="yes"/>
      <point x="581" y="636"/>
      <point x="670" y="546"/>
      <point x="670" y="346" type="curve" smooth="yes"/>
      <point x="670" y="344" type="line" smooth="yes"/>
      <point x="670" y="144"/>
      <point x="581" y="54"/>
    </contour>
  </outline>
</glyph>
<glyph name="E.ss03" format="1">
  <advance width="710"/>
  <outline>
    <contour>
      <point x="575" y="494" type="line"/>
      <point x="633" y="494" type="line"/>
      <point x="633" y="690" type="line"/>
      <point x="119" y="690" type="line"/>
      <point x="119" y="0" type="line"/>
      <point x="637" y="0" type="line"/>
      <point x="637" y="200" type="line"/>
      <point x="579" y="200" type="line"/>
      <point x="579" y="54" type="line"/>
      <point x="185" y="54" type="line"/>
      <point x="185" y="326" type="line"/>
      <point x="521" y="326" type="line"/>
      <point x="521" y="378" type="line"/>
      <point x="185" y="378" type="line"/>
      <point x="185" y="636" type="line"/>
      <point x="575" y="636" type="line"/>
    </contour>
    <contour>
      <point x="637" y="0" type="move" name="ogonek"/>
    </contour>
    <contour>
      <point x="377" y="690" type="move" name="top"/>
    </contour>
  </outline>
</glyph>
<glyph name="Eacute.ss03" format="1">
  <advance width="710"/>
  <note>
Eacute
</note>
  <outline>
    <component base="E.ss03"/>
    <component base="acutecomb.case" xOffset="177" yOffset="40"/>
    <contour>
      <point x="637" y="0" type="move" name="ogonek"/>
    </contour>
    <contour>
      <point x="377" y="690" type="move" name="top"/>
    </contour>
  </outline>
</glyph>
<glyph name="F.ss03" format="1">
  <advance width="686"/>
  <outline>
    <contour>
      <point x="118" y="0" type="line"/>
      <point x="184" y="0" type="line"/>
      <point x="184" y="326" type="line"/>
      <point x="518" y="326" type="line"/>
      <point x="518" y="378" type="line"/>
      <point x="184" y="378" type="line"/>
      <point x="184" y="636" type="line"/>
      <point x="574" y="636" type="line"/>
      <point x="574" y="494" type="line"/>
      <point x="632" y="494" type="line"/>
      <point x="632" y="690" type="line"/>
      <point x="118" y="690" type="line"/>
    </contour>
  </outline>
</glyph>
<glyph name="Germandbls.ss03" format="1">
  <advance width="761"/>
  <outline>
    <contour>
      <point x="123" y="0" type="line"/>
      <point x="189" y="0" type="line"/>
      <point x="189" y="636" type="line"/>
      <point x="583" y="636" type="line"/>
      <point x="359" y="394" type="line"/>
      <point x="359" y="342" type="line"/>
      <point x="464" y="342" type="line" smooth="yes"/>
      <point x="569" y="342"/>
      <point x="625" y="292"/>
      <point x="625" y="199" type="curve" smooth="yes"/>
      <point x="625" y="197" type="line" smooth="yes"/>
      <point x="625" y="104"/>
      <point x="569" y="54"/>
      <point x="464" y="54" type="curve" smooth="yes"/>
      <point x="295" y="54" type="line"/>
      <point x="295" y="0" type="line"/>
      <point x="470" y="0" type="line" smooth="yes"/>
      <point x="607" y="0"/>
      <point x="693" y="76"/>
      <point x="693" y="198" type="curve" smooth="yes"/>
      <point x="693" y="318"/>
      <point x="607" y="394"/>
      <point x="470" y="394" type="curve" smooth="yes"/>
      <point x="396" y="394" type="line"/>
      <point x="422" y="369" type="line"/>
      <point x="669" y="636" type="line"/>
      <point x="669" y="690" type="line"/>
      <point x="123" y="690" type="line"/>
    </contour>
  </outline>
</glyph>
<glyph name="K.ss03" format="1">
  <advance width="742"/>
  <outline>
    <contour>
      <point x="122" y="0" type="line"/>
      <point x="188" y="0" type="line"/>
      <point x="188" y="328" type="line"/>
      <point x="300" y="328" type="line"/>
      <point x="577" y="0" type="line"/>
      <point x="730" y="0" type="line"/>
      <point x="730" y="54" type="line"/>
      <point x="618" y="54" type="line"/>
      <point x="339" y="382" type="line"/>
      <point x="346" y="337" type="line"/>
      <point x="698" y="690" type="line"/>
      <point x="607" y="690" type="line"/>
      <point x="300" y="380" type="line"/>
      <point x="188" y="380" type="line"/>
      <point x="188" y="690" type="line"/>
      <point x="122" y="690" type="line"/>
    </contour>
  </outline>
</glyph>
<glyph name="L.ss03" format="1">
  <advance width="674"/>
  <outline>
    <contour>
      <point x="118" y="0" type="line"/>
      <point x="620" y="0" type="line"/>
      <point x="620" y="200" type="line"/>
      <point x="562" y="200" type="line"/>
      <point x="562" y="54" type="line"/>
      <point x="184" y="54" type="line"/>
      <point x="184" y="690" type="line"/>
      <point x="118" y="690" type="line"/>
    </contour>
    <contour>
      <point x="158" y="690" type="line"/>
      <point x="158" y="636" type="line"/>
      <point x="296" y="636" type="line"/>
      <point x="296" y="690" type="line"/>
    </contour>
  </outline>
</glyph>
<glyph name="M.ss04" format="1">
  <advance width="1042"/>
  <outline>
    <contour>
      <point x="130" y="0" type="line"/>
      <point x="194" y="0" type="line"/>
      <point x="194" y="632" type="line"/>
      <point x="218" y="632" type="line"/>
      <point x="496" y="0" type="line"/>
      <point x="554" y="0" type="line"/>
      <point x="832" y="632" type="line"/>
      <point x="856" y="632" type="line"/>
      <point x="856" y="0" type="line"/>
      <point x="922" y="0" type="line"/>
      <point x="922" y="690" type="line"/>
      <point x="792" y="690" type="line"/>
      <point x="538" y="112" type="line"/>
      <point x="514" y="112" type="line"/>
      <point x="260" y="690" type="line"/>
      <point x="130" y="690" type="line"/>
    </contour>
    <contour>
      <point x="152" y="636" type="line"/>
      <point x="152" y="690" type="line"/>
      <point x="18" y="690" type="line"/>
      <point x="18" y="636" type="line"/>
    </contour>
  </outline>
</glyph>
<glyph name="a.ss01" format="1">
  <advance width="723"/>
  <outline>
    <contour>
      <point x="317" y="-10" type="curve" smooth="yes"/>
      <point x="405" y="-10"/>
      <point x="465" y="26"/>
      <point x="512" y="104" type="curve"/>
      <point x="536" y="104" type="line"/>
      <point x="536" y="48" type="line" smooth="yes"/>
      <point x="536" y="17"/>
      <point x="553" y="0"/>
      <point x="584" y="0" type="curve" smooth="yes"/>
      <point x="684" y="0" type="line"/>
      <point x="684" y="52" type="line"/>
      <point x="588" y="52" type="line"/>
      <point x="588" y="482" type="line"/>
      <point x="684" y="482" type="line"/>
      <point x="684" y="534" type="line"/>
      <point x="536" y="534" type="line"/>
      <point x="536" y="430" type="line"/>
      <point x="512" y="430" type="line"/>
      <point x="465" y="508"/>
      <point x="405" y="544"/>
      <point x="317" y="544" type="curve" smooth="yes"/>
      <point x="161" y="544"/>
      <point x="64" y="437"/>
      <point x="64" y="267" type="curve" smooth="yes"/>
      <point x="64" y="97"/>
      <point x="161" y="-10"/>
    </contour>
    <contour>
      <point x="328" y="46" type="curve" smooth="yes"/>
      <point x="194" y="46"/>
      <point x="132" y="117"/>
      <point x="132" y="266" type="curve" smooth="yes"/>
      <point x="132" y="268" type="line" smooth="yes"/>
      <point x="132" y="417"/>
      <point x="194" y="488"/>
      <point x="328" y="488" type="curve" smooth="yes"/>
      <point x="462" y="488"/>
      <point x="524" y="417"/>
      <point x="524" y="268" type="curve" smooth="yes"/>
      <point x="524" y="266" type="line" smooth="yes"/>
      <point x="524" y="117"/>
      <point x="462" y="46"/>
    </contour>
    <contour>
      <point x="684" y="0" type="move" name="ogonek"/>
    </contour>
    <contour>
      <point x="328" y="534" type="move" name="top"/>
    </contour>
  </outline>
</glyph>
<glyph name="exclamdown.case" format="1">
  <advance width="298"/>
  <outline>
    <contour>
      <point x="168" y="516" type="line"/>
      <point x="130" y="516" type="line"/>
      <point x="113" y="54" type="line"/>
      <point x="113" y="0" type="line"/>
      <point x="185" y="0" type="line"/>
      <point x="185" y="54" type="line"/>
    </contour>
    <contour>
      <point x="192" y="690" type="line"/>
      <point x="106" y="690" type="line"/>
      <point x="106" y="608" type="line"/>
      <point x="192" y="608" type="line"/>
    </contour>
  </outline>
</glyph>
<glyph name="f_j" format="1">
  <advance width="756"/>
  <outline>
    <contour>
      <point x="166" y="642" type="curve" smooth="yes"/>
      <point x="166" y="0" type="line"/>
      <point x="230" y="0" type="line"/>
      <point x="230" y="638" type="line"/>
      <point x="410" y="638" type="line"/>
      <point x="410" y="690" type="line"/>
      <point x="214" y="690" type="line" smooth="yes"/>
      <point x="183" y="690"/>
      <point x="166" y="673"/>
    </contour>
    <contour>
      <point x="46" y="0" type="line"/>
      <point x="394" y="0" type="line"/>
      <point x="394" y="52" type="line"/>
      <point x="46" y="52" type="line"/>
    </contour>
    <contour>
      <point x="38" y="482" type="line"/>
      <point x="410" y="482" type="line"/>
      <point x="410" y="534" type="line"/>
      <point x="38" y="534" type="line"/>
    </contour>
    <contour>
      <point x="463" y="-132" type="line"/>
      <point x="601" y="-132" type="line" smooth="yes"/>
      <point x="632" y="-132"/>
      <point x="649" y="-115"/>
      <point x="649" y="-84" type="curve" smooth="yes"/>
      <point x="649" y="534" type="line"/>
      <point x="471" y="534" type="line"/>
      <point x="471" y="482" type="line"/>
      <point x="585" y="482" type="line"/>
      <point x="585" y="-80" type="line"/>
      <point x="463" y="-80" type="line"/>
    </contour>
    <contour>
      <point x="573" y="614" type="line"/>
      <point x="657" y="614" type="line"/>
      <point x="657" y="690" type="line"/>
      <point x="573" y="690" type="line"/>
    </contour>
    <contour>
      <point x="369" y="534" type="line"/>
      <point x="369" y="482" type="line"/>
      <point x="492" y="482" type="line"/>
      <point x="492" y="534" type="line"/>
    </contour>
  </outline>
</glyph>
<glyph name="f_k" format="1">
  <advance width="1109"/>
  <outline>
    <contour>
      <point x="166" y="642" type="curve" smooth="yes"/>
      <point x="166" y="0" type="line"/>
      <point x="230" y="0" type="line"/>
      <point x="230" y="638" type="line"/>
      <point x="410" y="638" type="line"/>
      <point x="410" y="690" type="line"/>
      <point x="214" y="690" type="line" smooth="yes"/>
      <point x="183" y="690"/>
      <point x="166" y="673"/>
    </contour>
    <contour>
      <point x="46" y="0" type="line"/>
      <point x="394" y="0" type="line"/>
      <point x="394" y="52" type="line"/>
      <point x="46" y="52" type="line"/>
    </contour>
    <contour>
      <point x="38" y="482" type="line"/>
      <point x="410" y="482" type="line"/>
      <point x="410" y="534" type="line"/>
      <point x="38" y="534" type="line"/>
    </contour>
    <contour>
      <point x="547" y="0" type="line"/>
      <point x="611" y="0" type="line"/>
      <point x="611" y="251" type="line"/>
      <point x="715" y="251" type="line"/>
      <point x="952" y="0" type="line"/>
      <point x="1087" y="0" type="line"/>
      <point x="1087" y="52" type="line"/>
      <point x="991" y="52" type="line"/>
      <point x="750" y="305" type="line"/>
      <point x="758" y="258" type="line"/>
      <point x="1063" y="534" type="line"/>
      <point x="970" y="534" type="line"/>
      <point x="715" y="301" type="line"/>
      <point x="611" y="301" type="line"/>
      <point x="611" y="690" type="line"/>
      <point x="451" y="690" type="line"/>
      <point x="451" y="638" type="line"/>
      <point x="547" y="638" type="line"/>
    </contour>
    <contour>
      <point x="363" y="690" type="line"/>
      <point x="363" y="638" type="line"/>
      <point x="506" y="638" type="line"/>
      <point x="506" y="690" type="line"/>
    </contour>
  </outline>
</glyph>
<glyph name="f_t" format="1">
  <advance width="873"/>
  <outline>
    <contour>
      <point x="166" y="642" type="curve" smooth="yes"/>
      <point x="166" y="0" type="line"/>
      <point x="230" y="0" type="line"/>
      <point x="230" y="638" type="line"/>
      <point x="410" y="638" type="line"/>
      <point x="410" y="690" type="line"/>
      <point x="214" y="690" type="line" smooth="yes"/>
      <point x="183" y="690"/>
      <point x="166" y="673"/>
    </contour>
    <contour>
      <point x="46" y="0" type="line"/>
      <point x="394" y="0" type="line"/>
      <point x="394" y="52" type="line"/>
      <point x="46" y="52" type="line"/>
    </contour>
    <contour>
      <point x="38" y="482" type="line"/>
      <point x="410" y="482" type="line"/>
      <point x="410" y="534" type="line"/>
      <point x="38" y="534" type="line"/>
    </contour>
    <contour>
      <point x="643" y="0" type="curve" smooth="yes"/>
      <point x="831" y="0" type="line"/>
      <point x="831" y="52" type="line"/>
      <point x="659" y="52" type="line"/>
      <point x="659" y="646" type="line"/>
      <point x="621" y="646" type="line"/>
      <point x="595" y="534" type="line"/>
      <point x="595" y="48" type="line" smooth="yes"/>
      <point x="595" y="17"/>
      <point x="612" y="0"/>
    </contour>
    <contour>
      <point x="463" y="482" type="line"/>
      <point x="831" y="482" type="line"/>
      <point x="831" y="534" type="line"/>
      <point x="463" y="534" type="line"/>
    </contour>
    <contour>
      <point x="364" y="534" type="line"/>
      <point x="364" y="482" type="line"/>
      <point x="487" y="482" type="line"/>
      <point x="487" y="534" type="line"/>
    </contour>
  </outline>
</glyph>
<glyph name="f_thorn" format="1">
  <advance width="1143"/>
  <outline>
    <contour>
      <point x="166" y="642" type="curve" smooth="yes"/>
      <point x="166" y="0" type="line"/>
      <point x="230" y="0" type="line"/>
      <point x="230" y="638" type="line"/>
      <point x="410" y="638" type="line"/>
      <point x="410" y="690" type="line"/>
      <point x="214" y="690" type="line" smooth="yes"/>
      <point x="183" y="690"/>
      <point x="166" y="673"/>
    </contour>
    <contour>
      <point x="46" y="0" type="line"/>
      <point x="394" y="0" type="line"/>
      <point x="394" y="52" type="line"/>
      <point x="46" y="52" type="line"/>
    </contour>
    <contour>
      <point x="38" y="482" type="line"/>
      <point x="410" y="482" type="line"/>
      <point x="410" y="534" type="line"/>
      <point x="38" y="534" type="line"/>
    </contour>
    <contour>
      <point x="547" y="-132" type="line"/>
      <point x="611" y="-132" type="line"/>
      <point x="611" y="-26" type="line" smooth="yes"/>
      <point x="611" y="5"/>
      <point x="608" y="37"/>
      <point x="601" y="100" type="curve"/>
      <point x="625" y="100" type="line"/>
      <point x="671" y="24"/>
      <point x="732" y="-10"/>
      <point x="822" y="-10" type="curve" smooth="yes"/>
      <point x="980" y="-10"/>
      <point x="1079" y="97"/>
      <point x="1079" y="267" type="curve" smooth="yes"/>
      <point x="1079" y="437"/>
      <point x="980" y="544"/>
      <point x="822" y="544" type="curve" smooth="yes"/>
      <point x="732" y="544"/>
      <point x="671" y="510"/>
      <point x="625" y="434" type="curve"/>
      <point x="601" y="434" type="line"/>
      <point x="608" y="497"/>
      <point x="611" y="529"/>
      <point x="611" y="560" type="curve" smooth="yes"/>
      <point x="611" y="690" type="line"/>
      <point x="451" y="690" type="line"/>
      <point x="451" y="638" type="line"/>
      <point x="547" y="638" type="line"/>
    </contour>
    <contour>
      <point x="811" y="46" type="curve" smooth="yes"/>
      <point x="675" y="46"/>
      <point x="611" y="117"/>
      <point x="611" y="266" type="curve" smooth="yes"/>
      <point x="611" y="268" type="line" smooth="yes"/>
      <point x="611" y="417"/>
      <point x="675" y="488"/>
      <point x="811" y="488" type="curve" smooth="yes"/>
      <point x="947" y="488"/>
      <point x="1011" y="417"/>
      <point x="1011" y="268" type="curve" smooth="yes"/>
      <point x="1011" y="266" type="line" smooth="yes"/>
      <point x="1011" y="117"/>
      <point x="947" y="46"/>
    </contour>
    <contour>
      <point x="363" y="690" type="line"/>
      <point x="363" y="638" type="line"/>
      <point x="506" y="638" type="line"/>
      <point x="506" y="690" type="line"/>
    </contour>
  </outline>
</glyph>
<glyph name="t_t" format="1">
  <advance width="860"/>
  <outline>
    <contour>
      <point x="200" y="0" type="curve" smooth="yes"/>
      <point x="388" y="0" type="line"/>
      <point x="388" y="52" type="line"/>
      <point x="216" y="52" type="line"/>
      <point x="216" y="646" type="line"/>
      <point x="178" y="646" type="line"/>
      <point x="152" y="534" type="line"/>
      <point x="152" y="48" type="line" smooth="yes"/>
      <point x="152" y="17"/>
      <point x="169" y="0"/>
    </contour>
    <contour>
      <point x="20" y="482" type="line"/>
      <point x="388" y="482" type="line"/>
      <point x="388" y="534" type="line"/>
      <point x="20" y="534" type="line"/>
    </contour>
    <contour>
      <point x="630" y="0" type="curve" smooth="yes"/>
      <point x="818" y="0" type="line"/>
      <point x="818" y="52" type="line"/>
      <point x="646" y="52" type="line"/>
      <point x="646" y="646" type="line"/>
      <point x="608" y="646" type="line"/>
      <point x="582" y="534" type="line"/>
      <point x="582" y="48" type="line" smooth="yes"/>
      <point x="582" y="17"/>
      <point x="599" y="0"/>
    </contour>
    <contour>
      <point x="450" y="482" type="line"/>
      <point x="818" y="482" type="line"/>
      <point x="818" y="534" type="line"/>
      <point x="450" y="534" type="line"/>
    </contour>
    <contour>
      <point x="196" y="534" type="line"/>
      <point x="196" y="482" type="line"/>
      <point x="601" y="482" type="line"/>
      <point x="601" y="534" type="line"/>
    </contour>
  </outline>
</glyph>
